<?xml version="1.0" encoding="UTF-8"?>
<svg version="1.1" xmlns="http://www.w3.org/2000/svg" width="512" height="512">
<path d="M0 0 C0.66142535 -0.00694553 1.32285071 -0.01389106 2.00431925 -0.02104706 C4.21933334 -0.03933491 6.4332785 -0.02904883 8.64833069 -0.01878357 C10.23685508 -0.02584123 11.82537275 -0.0345856 13.41387939 -0.04489136 C17.72800023 -0.06741311 22.04175469 -0.06443913 26.35591197 -0.05556989 C29.95690741 -0.05046331 33.55783379 -0.0577499 37.15882212 -0.06504196 C45.65375864 -0.08204997 54.14851558 -0.07846626 62.64344788 -0.06175232 C71.40843046 -0.04483008 80.17291507 -0.06066475 88.93784326 -0.0929752 C96.46239342 -0.11966277 103.98678848 -0.12694937 111.51138121 -0.11846012 C116.00581732 -0.11352842 120.49995378 -0.11575943 124.99435234 -0.13624763 C129.22084747 -0.15459178 133.44662584 -0.14866214 137.67308235 -0.12404823 C139.22387458 -0.11903621 140.77472129 -0.12254036 142.32546997 -0.13519669 C144.44379781 -0.15111703 146.55976229 -0.13619172 148.67797852 -0.11352539 C150.45523772 -0.11264593 150.45523772 -0.11264593 152.26840115 -0.1117487 C156.32137092 0.69832333 157.84796423 2.33860335 160.40248108 5.5146637 C160.40248108 6.1746637 160.40248108 6.8346637 160.40248108 7.5146637 C166.34248108 7.5146637 172.28248108 7.5146637 178.40248108 7.5146637 C179.06248108 5.8646637 179.72248108 4.2146637 180.40248108 2.5146637 C183.60151965 0.38197131 184.47891111 0.25443554 188.16175842 0.20826721 C189.12641022 0.19227982 190.09106201 0.17629242 191.08494568 0.15982056 C192.12559174 0.15445786 193.16623779 0.14909515 194.23841858 0.14356995 C195.30992157 0.13454147 196.38142456 0.125513 197.48539734 0.11621094 C199.75330303 0.10169649 202.0212507 0.09281875 204.28919983 0.08912659 C207.75736639 0.07723268 211.22375277 0.02805852 214.69154358 -0.02244568 C216.89465989 -0.03191001 219.09778714 -0.039145 221.30091858 -0.04393005 C222.33751617 -0.06346237 223.37411377 -0.08299469 224.44212341 -0.1031189 C232.46925925 -0.0528728 232.46925925 -0.0528728 235.59632874 2.92457581 C237.40248108 5.5146637 237.40248108 5.5146637 237.40248108 7.5146637 C243.34248108 7.5146637 249.28248108 7.5146637 255.40248108 7.5146637 C256.06248108 5.8646637 256.72248108 4.2146637 257.40248108 2.5146637 C260.45237626 0.48140024 261.03760556 0.26412637 264.46176815 0.25739479 C265.29083925 0.2509459 266.11991035 0.24449701 266.97410482 0.23785269 C267.88479256 0.2409499 268.79548031 0.2440471 269.73376465 0.24723816 C270.70130757 0.24270705 271.66885049 0.23817593 272.66571289 0.23350751 C275.92233655 0.22080182 279.17879429 0.22248785 282.43544006 0.22413635 C284.76434038 0.218155 287.0932387 0.21135037 289.4221344 0.20378113 C295.75881065 0.18607505 302.09543293 0.18142384 308.43213153 0.18014956 C313.71571873 0.17825354 318.99929326 0.17089953 324.2828756 0.16380537 C336.0317603 0.14815421 347.78062154 0.14246902 359.52951574 0.14381607 C360.58727201 0.14393594 360.58727201 0.14393594 361.66639709 0.14405823 C362.37242705 0.14413999 363.078457 0.14422175 363.80588181 0.14430599 C375.25203043 0.14511916 386.69804754 0.12597449 398.14415812 0.09778149 C409.89189072 0.06907344 421.63955914 0.05524002 433.38732773 0.05696905 C439.98488596 0.05747998 446.58229537 0.05172445 453.17982292 0.03061295 C459.38257205 0.0113073 465.58502922 0.01105348 471.78778839 0.02564621 C474.06788367 0.02774488 476.34799687 0.02297094 478.62806129 0.01092529 C481.73379318 -0.00442326 484.83850524 0.0047123 487.94421387 0.02018738 C488.85267089 0.00990025 489.76112791 -0.00038687 490.69711393 -0.01098573 C496.77421731 0.05622136 496.77421731 0.05622136 499.9614563 2.38194084 C501.81288625 5.12206511 501.91532228 6.84114264 501.93592834 10.13771057 C501.95176468 11.26568054 501.96760101 12.39365051 501.98391724 13.55580139 C501.97895737 14.76941345 501.9739975 15.98302551 501.96888733 17.2334137 C501.97508591 18.48344177 501.98128448 19.73346985 501.9876709 21.02137756 C501.99477612 23.66472714 501.99352692 26.30655603 501.97889709 28.94972229 C501.96170126 32.33302881 501.98521397 35.71463826 502.0203867 39.09775543 C502.04765316 42.33049532 502.03762513 45.56309124 502.03138733 48.7959137 C502.04464554 50.00952576 502.05790375 51.22313782 502.07156372 52.473526 C501.9785152 60.84781784 501.9785152 60.84781784 498.98817444 64.30958557 C496.40248108 65.5146637 496.40248108 65.5146637 494.40248108 65.5146637 C494.40248108 71.4546637 494.40248108 77.3946637 494.40248108 83.5146637 C496.05248108 84.1746637 497.70248108 84.8346637 499.40248108 85.5146637 C501.78386725 87.89604986 501.65409403 88.37015598 501.6625433 91.60707664 C501.66960889 92.46899065 501.67667448 93.33090466 501.68395418 94.21893728 C501.6815391 95.17144735 501.67912401 96.12395741 501.67663574 97.10533142 C501.68187242 98.11285544 501.6871091 99.12037946 501.69250447 100.15843451 C501.70758383 103.55635111 501.70821135 106.95411819 501.70887756 110.35206604 C501.7164937 112.77934018 501.72492024 115.20661189 501.73410034 117.63388062 C501.7561057 124.2433267 501.76487365 130.85273713 501.76992679 137.46221113 C501.77318076 141.58735223 501.77970141 145.71248397 501.78692818 149.83761978 C501.80649725 161.25377032 501.82289972 172.66991215 501.82580471 184.08608055 C501.82599228 184.81700404 501.82617985 185.54792753 501.8263731 186.30100022 C501.82673936 187.78283064 501.82710306 189.26466106 501.82746422 190.74649148 C501.82764703 191.48209768 501.82782984 192.21770389 501.82801819 192.9756012 C501.82828901 194.0803536 501.82828901 194.0803536 501.82856531 195.20742424 C501.83210799 207.14511687 501.85913479 219.08262922 501.89651608 231.02025931 C501.9345675 243.26968605 501.95396195 255.51902328 501.95426422 267.76851046 C501.9548495 274.64892408 501.9633866 281.52912266 501.99226189 288.40948105 C502.01928749 294.87896672 502.02070757 301.34813817 502.00460625 307.81766319 C502.00278321 310.19612873 502.00955883 312.57461822 502.02542496 314.95303154 C502.04572279 318.19254337 502.03542886 321.43053844 502.01721191 324.67002869 C502.03041188 325.61807731 502.04361185 326.56612593 502.05721182 327.5429033 C501.97548066 333.87714044 501.97548066 333.87714044 499.07739353 337.10157204 C495.58161069 338.9483097 493.07737716 338.97021754 489.13294983 338.9052887 C488.45194717 338.89962891 487.77094452 338.89396912 487.06930542 338.88813782 C484.90879463 338.86586851 482.74998462 338.81569688 480.58998108 338.7646637 C479.11930203 338.74458617 477.64859679 338.72633758 476.1778717 338.7099762 C472.58552858 338.66603696 468.99417102 338.59707826 465.40248108 338.5146637 C465.40248108 342.8046637 465.40248108 347.0946637 465.40248108 351.5146637 C467.16076233 351.45665588 468.91904358 351.39864807 470.73060608 351.33888245 C473.03787124 351.29198681 475.34516506 351.24648645 477.65248108 351.2021637 C478.81134827 351.16026917 479.97021545 351.11837463 481.16419983 351.07521057 C489.51262218 350.95456863 489.51262218 350.95456863 493.16419983 353.25294495 C495.14023246 358.45795202 495.0185965 363.49542923 494.96498108 369.0146637 C494.98882874 370.14259338 495.01267639 371.27052307 495.0372467 372.43263245 C495.03531311 373.52189026 495.03337952 374.61114807 495.03138733 375.7334137 C495.03247498 377.2174469 495.03247498 377.2174469 495.03358459 378.73146057 C494.14195778 382.66358656 492.54289378 384.01732274 489.40248108 386.5146637 C486.46582818 387.00621894 484.11146621 387.18853104 481.17993164 387.1438694 C479.93763524 387.15477021 479.93763524 387.15477021 478.67024195 387.16589123 C475.88253229 387.18420432 473.09618759 387.16675688 470.30848694 387.14958191 C468.29482537 387.1553406 466.28116905 387.16328002 464.26752377 387.17321813 C458.72436328 387.19414916 453.18163153 387.18374775 447.63846922 387.16828704 C441.66427886 387.15700308 435.69016372 387.17442155 429.71598816 387.18818665 C418.68582338 387.20916726 407.65578648 387.20730373 396.6256167 387.1936293 C386.43638581 387.18105919 376.24720519 387.17776442 366.05796814 387.18374252 C365.38250023 387.18412445 364.70703233 387.18450637 364.0110957 387.18489987 C361.26925816 387.18645653 358.52742065 387.18804852 355.78558316 387.18969869 C330.05687528 387.20499905 304.32825477 387.19111794 278.59956037 387.16421421 C255.73336473 387.14048555 232.86730831 387.14260867 210.00111389 387.16651917 C184.31993886 387.19328334 158.63884104 387.20391402 132.957654 387.18845785 C130.22076736 387.18685422 127.48388069 387.18529002 124.74699402 387.18374252 C124.0730862 387.18334714 123.39917838 387.18295175 122.70484912 387.18254438 C112.52118339 387.17685329 102.33757342 387.18351531 92.15391541 387.19614029 C80.57640652 387.21042157 68.99905409 387.20641225 57.42156386 387.17973657 C51.51108702 387.16656846 45.60089319 387.16149713 39.69041824 387.17798233 C34.28445521 387.19283267 28.87903871 387.18477483 23.47312558 387.15809457 C21.51290846 387.15248872 19.55264558 387.15539683 17.59245765 387.16747351 C14.93598405 387.18259016 12.28140379 387.16717834 9.62503052 387.1438694 C8.85667425 387.15557523 8.08831798 387.16728106 7.29667819 387.17934161 C3.32791028 387.10931763 1.57419882 386.65121828 -1.57198429 384.14928854 C-3.94414542 381.06380457 -4.22924686 379.58345836 -4.22642517 375.7334137 C-4.22932556 374.09952698 -4.22932556 374.09952698 -4.23228455 372.43263245 C-4.20843689 371.30470276 -4.18458923 370.17677307 -4.16001892 369.0146637 C-4.17097595 367.88673401 -4.18193298 366.75880432 -4.19322205 365.59669495 C-4.12135689 357.49988692 -4.12135689 357.49988692 -2.09239197 353.68385315 C1.39249308 350.653889 4.49099291 350.8825461 8.88685608 351.02638245 C9.70244995 351.03345718 10.51804382 351.04053192 11.35835266 351.04782104 C13.95733789 351.07575825 16.5541498 351.13849088 19.15248108 351.2021637 C20.91677283 351.22724765 22.68109843 351.25006065 24.44544983 351.27052307 C28.76529463 351.32558215 33.08351971 351.41184635 37.40248108 351.5146637 C37.40248108 347.2246637 37.40248108 342.9346637 37.40248108 338.5146637 C36.1260675 338.53561096 34.84965393 338.55655823 33.53456116 338.57814026 C28.79167431 338.65062801 24.04883628 338.69649556 19.30555725 338.73439026 C17.25404115 338.75448568 15.20258219 338.78176694 13.15126038 338.81642151 C10.19970083 338.86503038 7.2488996 338.88765322 4.29701233 338.9052887 C3.38224625 338.92593384 2.46748016 338.94657898 1.5249939 338.96784973 C0.66447922 338.96815186 -0.19603546 338.96845398 -1.08262634 338.96876526 C-1.83541367 338.97764771 -2.58820099 338.98653015 -3.36380005 338.99568176 C-6.60642539 338.29740169 -8.22967547 336.80609505 -10.59751892 334.5146637 C-11.22311407 331.90650272 -11.22311407 331.90650272 -11.22393131 328.87991333 C-11.23635335 327.72489539 -11.24877539 326.56987745 -11.26157385 325.37985897 C-11.24973812 324.11022588 -11.23790239 322.84059278 -11.22570801 321.53248596 C-11.23075188 320.17069088 -11.23797948 318.80890242 -11.24720615 317.44712925 C-11.26617874 313.70114752 -11.25386714 309.95581637 -11.23648322 306.20985079 C-11.22313864 302.17159825 -11.23853579 298.13344276 -11.25030518 294.09519958 C-11.26870799 286.18278734 -11.26015192 278.27062163 -11.24221695 270.358217 C-11.22820528 263.92907578 -11.22429506 257.50000159 -11.22765923 251.07084656 C-11.22813667 250.1566742 -11.22861411 249.24250184 -11.22910602 248.30062729 C-11.23013232 246.44364634 -11.23118768 244.5866654 -11.23227178 242.72968447 C-11.24084419 226.30021408 -11.22414634 209.8708629 -11.19444275 193.44142151 C-11.16560404 177.49019869 -11.1585211 161.53914762 -11.17393494 145.58790588 C-11.19068664 128.22831461 -11.19474184 110.86880493 -11.17722458 93.50921154 C-11.17538014 91.65896798 -11.17354541 89.80872441 -11.1717205 87.95848083 C-11.17080842 87.04806725 -11.16989633 86.13765366 -11.1689566 85.19965178 C-11.16334478 78.77641302 -11.16666438 72.35321402 -11.17326546 65.92997742 C-11.18098786 58.10477891 -11.17428565 50.27974965 -11.14909042 42.45458531 C-11.13656983 38.46015183 -11.1304796 34.46598216 -11.14163208 30.47153854 C-11.15164218 26.81732326 -11.1432848 23.16363507 -11.1200509 19.50948417 C-11.11241449 17.5561522 -11.12447638 15.60277418 -11.13715464 13.64946842 C-11.12610695 12.49445048 -11.11505926 11.33943254 -11.1036768 10.14941406 C-11.10248531 9.15063956 -11.10129383 8.15186506 -11.10006624 7.12282467 C-9.89421179 0.86458315 -5.71063522 0.01353298 0 0 Z M80.40248108 338.5146637 C80.40248108 342.8046637 80.40248108 347.0946637 80.40248108 351.5146637 C192.93248108 351.5146637 305.46248108 351.5146637 421.40248108 351.5146637 C421.40248108 347.2246637 421.40248108 342.9346637 421.40248108 338.5146637 C308.87248108 338.5146637 196.34248108 338.5146637 80.40248108 338.5146637 Z " fill="#159AFD" transform="translate(10.597518920898438,62.48533630371094)"/>
<path d="M0 0 C0.66142535 -0.00694553 1.32285071 -0.01389106 2.00431925 -0.02104706 C4.21933334 -0.03933491 6.4332785 -0.02904883 8.64833069 -0.01878357 C10.23685508 -0.02584123 11.82537275 -0.0345856 13.41387939 -0.04489136 C17.72800023 -0.06741311 22.04175469 -0.06443913 26.35591197 -0.05556989 C29.95690741 -0.05046331 33.55783379 -0.0577499 37.15882212 -0.06504196 C45.65375864 -0.08204997 54.14851558 -0.07846626 62.64344788 -0.06175232 C71.40843046 -0.04483008 80.17291507 -0.06066475 88.93784326 -0.0929752 C96.46239342 -0.11966277 103.98678848 -0.12694937 111.51138121 -0.11846012 C116.00581732 -0.11352842 120.49995378 -0.11575943 124.99435234 -0.13624763 C129.22084747 -0.15459178 133.44662584 -0.14866214 137.67308235 -0.12404823 C139.22387458 -0.11903621 140.77472129 -0.12254036 142.32546997 -0.13519669 C144.44379781 -0.15111703 146.55976229 -0.13619172 148.67797852 -0.11352539 C150.45523772 -0.11264593 150.45523772 -0.11264593 152.26840115 -0.1117487 C156.34404605 0.70285544 157.8662898 2.28646951 160.40248108 5.5146637 C160.47602195 9.11816618 159.93573037 10.83032026 157.72442245 13.66819382 C154.7066657 16.0679947 153.01836653 16.00840418 149.18891907 15.99568176 C147.91553303 16.00119175 146.64214699 16.00670174 145.33017349 16.01237869 C143.91579589 15.9981922 142.50142192 15.98364062 141.08705139 15.96876526 C139.57470618 15.96753979 138.06235867 15.96807411 136.5500145 15.97022629 C132.49955353 15.97112943 128.44956514 15.94794497 124.3992157 15.91978455 C120.59869393 15.89700626 116.79828716 15.8959322 112.99769592 15.89308167 C101.8825617 15.87209152 90.76751543 15.81624688 79.65248108 15.7646637 C42.40373108 15.6409137 42.40373108 15.6409137 4.40248108 15.5146637 C4.40248108 104.9446637 4.40248108 194.3746637 4.40248108 286.5146637 C163.46248108 286.5146637 322.52248108 286.5146637 486.40248108 286.5146637 C486.40248108 221.1746637 486.40248108 155.8346637 486.40248108 88.5146637 C490.40248108 84.5146637 490.40248108 84.5146637 493.33998108 83.5146637 C496.40248108 83.5146637 496.40248108 83.5146637 499.05420494 84.90021515 C502.56633457 88.81043766 502.09741308 92.25205254 502.03739929 97.34584045 C502.04519925 98.35507332 502.0529992 99.36430619 502.06103551 100.40412188 C502.08102743 103.79615487 502.06516205 107.1870749 502.04945374 110.57911682 C502.05622661 113.00669003 502.06512788 115.43425811 502.07600403 117.86181641 C502.09646924 123.7769756 502.0934288 129.69184426 502.07894082 135.60699546 C502.06765434 140.41381489 502.06611509 145.2205454 502.07155991 150.02737427 C502.07270915 151.05310033 502.07270915 151.05310033 502.07388162 152.09954813 C502.07548023 153.4886581 502.07710129 154.87776804 502.07874458 156.26687795 C502.09300643 169.2962788 502.0766026 182.32550384 502.04974274 195.35487586 C502.02740349 206.53762107 502.0312835 217.72010677 502.05433655 228.90284729 C502.08108695 241.88522538 502.0916331 254.86744933 502.07627523 267.84985113 C502.07468246 269.23388511 502.07311061 270.6179191 502.07155991 272.00195312 C502.07040284 273.02344178 502.07040284 273.02344178 502.0692224 274.06556657 C502.06490309 278.86728584 502.07219686 283.66890743 502.08395767 288.47061157 C502.09943539 294.93196404 502.08843489 301.39294118 502.05948639 307.85424995 C502.05285956 310.22947434 502.05480028 312.60473988 502.06579971 314.97994804 C502.07940297 318.21502443 502.0624011 321.4485126 502.03739929 324.68348694 C502.0485529 325.63017132 502.05970651 326.57685571 502.07119811 327.5522275 C501.97595668 333.87716422 501.97595668 333.87716422 499.07613182 337.1007309 C495.58103561 338.94907672 493.07745276 338.97021879 489.13294983 338.9052887 C488.45194717 338.89962891 487.77094452 338.89396912 487.06930542 338.88813782 C484.90879463 338.86586851 482.74998462 338.81569688 480.58998108 338.7646637 C479.11930203 338.74458617 477.64859679 338.72633758 476.1778717 338.7099762 C472.58552858 338.66603696 468.99417102 338.59707826 465.40248108 338.5146637 C465.40248108 342.8046637 465.40248108 347.0946637 465.40248108 351.5146637 C467.16076233 351.45665588 468.91904358 351.39864807 470.73060608 351.33888245 C473.03787124 351.29198681 475.34516506 351.24648645 477.65248108 351.2021637 C478.81134827 351.16026917 479.97021545 351.11837463 481.16419983 351.07521057 C489.51262218 350.95456863 489.51262218 350.95456863 493.16419983 353.25294495 C495.14023246 358.45795202 495.0185965 363.49542923 494.96498108 369.0146637 C494.98882874 370.14259338 495.01267639 371.27052307 495.0372467 372.43263245 C495.03531311 373.52189026 495.03337952 374.61114807 495.03138733 375.7334137 C495.03247498 377.2174469 495.03247498 377.2174469 495.03358459 378.73146057 C494.14195778 382.66358656 492.54289378 384.01732274 489.40248108 386.5146637 C486.46582818 387.00621894 484.11146621 387.18853104 481.17993164 387.1438694 C479.93763524 387.15477021 479.93763524 387.15477021 478.67024195 387.16589123 C475.88253229 387.18420432 473.09618759 387.16675688 470.30848694 387.14958191 C468.29482537 387.1553406 466.28116905 387.16328002 464.26752377 387.17321813 C458.72436328 387.19414916 453.18163153 387.18374775 447.63846922 387.16828704 C441.66427886 387.15700308 435.69016372 387.17442155 429.71598816 387.18818665 C418.68582338 387.20916726 407.65578648 387.20730373 396.6256167 387.1936293 C386.43638581 387.18105919 376.24720519 387.17776442 366.05796814 387.18374252 C365.38250023 387.18412445 364.70703233 387.18450637 364.0110957 387.18489987 C361.26925816 387.18645653 358.52742065 387.18804852 355.78558316 387.18969869 C330.05687528 387.20499905 304.32825477 387.19111794 278.59956037 387.16421421 C255.73336473 387.14048555 232.86730831 387.14260867 210.00111389 387.16651917 C184.31993886 387.19328334 158.63884104 387.20391402 132.957654 387.18845785 C130.22076736 387.18685422 127.48388069 387.18529002 124.74699402 387.18374252 C124.0730862 387.18334714 123.39917838 387.18295175 122.70484912 387.18254438 C112.52118339 387.17685329 102.33757342 387.18351531 92.15391541 387.19614029 C80.57640652 387.21042157 68.99905409 387.20641225 57.42156386 387.17973657 C51.51108702 387.16656846 45.60089319 387.16149713 39.69041824 387.17798233 C34.28445521 387.19283267 28.87903871 387.18477483 23.47312558 387.15809457 C21.51290846 387.15248872 19.55264558 387.15539683 17.59245765 387.16747351 C14.93598405 387.18259016 12.28140379 387.16717834 9.62503052 387.1438694 C8.85667425 387.15557523 8.08831798 387.16728106 7.29667819 387.17934161 C3.32791028 387.10931763 1.57419882 386.65121828 -1.57198429 384.14928854 C-3.94414542 381.06380457 -4.22924686 379.58345836 -4.22642517 375.7334137 C-4.22932556 374.09952698 -4.22932556 374.09952698 -4.23228455 372.43263245 C-4.20843689 371.30470276 -4.18458923 370.17677307 -4.16001892 369.0146637 C-4.17097595 367.88673401 -4.18193298 366.75880432 -4.19322205 365.59669495 C-4.12135689 357.49988692 -4.12135689 357.49988692 -2.09239197 353.68385315 C1.39249308 350.653889 4.49099291 350.8825461 8.88685608 351.02638245 C9.70244995 351.03345718 10.51804382 351.04053192 11.35835266 351.04782104 C13.95733789 351.07575825 16.5541498 351.13849088 19.15248108 351.2021637 C20.91677283 351.22724765 22.68109843 351.25006065 24.44544983 351.27052307 C28.76529463 351.32558215 33.08351971 351.41184635 37.40248108 351.5146637 C37.40248108 347.2246637 37.40248108 342.9346637 37.40248108 338.5146637 C36.1260675 338.53561096 34.84965393 338.55655823 33.53456116 338.57814026 C28.79167431 338.65062801 24.04883628 338.69649556 19.30555725 338.73439026 C17.25404115 338.75448568 15.20258219 338.78176694 13.15126038 338.81642151 C10.19970083 338.86503038 7.2488996 338.88765322 4.29701233 338.9052887 C3.38224625 338.92593384 2.46748016 338.94657898 1.5249939 338.96784973 C0.66447922 338.96815186 -0.19603546 338.96845398 -1.08262634 338.96876526 C-1.83541367 338.97764771 -2.58820099 338.98653015 -3.36380005 338.99568176 C-6.60642539 338.29740169 -8.22967547 336.80609505 -10.59751892 334.5146637 C-11.22311407 331.90650272 -11.22311407 331.90650272 -11.22393131 328.87991333 C-11.23635335 327.72489539 -11.24877539 326.56987745 -11.26157385 325.37985897 C-11.24973812 324.11022588 -11.23790239 322.84059278 -11.22570801 321.53248596 C-11.23075188 320.17069088 -11.23797948 318.80890242 -11.24720615 317.44712925 C-11.26617874 313.70114752 -11.25386714 309.95581637 -11.23648322 306.20985079 C-11.22313864 302.17159825 -11.23853579 298.13344276 -11.25030518 294.09519958 C-11.26870799 286.18278734 -11.26015192 278.27062163 -11.24221695 270.358217 C-11.22820528 263.92907578 -11.22429506 257.50000159 -11.22765923 251.07084656 C-11.22813667 250.1566742 -11.22861411 249.24250184 -11.22910602 248.30062729 C-11.23013232 246.44364634 -11.23118768 244.5866654 -11.23227178 242.72968447 C-11.24084419 226.30021408 -11.22414634 209.8708629 -11.19444275 193.44142151 C-11.16560404 177.49019869 -11.1585211 161.53914762 -11.17393494 145.58790588 C-11.19068664 128.22831461 -11.19474184 110.86880493 -11.17722458 93.50921154 C-11.17538014 91.65896798 -11.17354541 89.80872441 -11.1717205 87.95848083 C-11.17080842 87.04806725 -11.16989633 86.13765366 -11.1689566 85.19965178 C-11.16334478 78.77641302 -11.16666438 72.35321402 -11.17326546 65.92997742 C-11.18098786 58.10477891 -11.17428565 50.27974965 -11.14909042 42.45458531 C-11.13656983 38.46015183 -11.1304796 34.46598216 -11.14163208 30.47153854 C-11.15164218 26.81732326 -11.1432848 23.16363507 -11.1200509 19.50948417 C-11.11241449 17.5561522 -11.12447638 15.60277418 -11.13715464 13.64946842 C-11.12610695 12.49445048 -11.11505926 11.33943254 -11.1036768 10.14941406 C-11.10248531 9.15063956 -11.10129383 8.15186506 -11.10006624 7.12282467 C-9.89421179 0.86458315 -5.71063522 0.01353298 0 0 Z M80.40248108 338.5146637 C80.40248108 342.8046637 80.40248108 347.0946637 80.40248108 351.5146637 C192.93248108 351.5146637 305.46248108 351.5146637 421.40248108 351.5146637 C421.40248108 347.2246637 421.40248108 342.9346637 421.40248108 338.5146637 C308.87248108 338.5146637 196.34248108 338.5146637 80.40248108 338.5146637 Z " fill="#000001" transform="translate(10.597518920898438,62.48533630371094)"/>
<path d="M0 0 C0.96465179 -0.0159874 1.92930359 -0.03197479 2.92318726 -0.04844666 C3.96383331 -0.05380936 5.00447937 -0.05917206 6.07666016 -0.06469727 C7.14816315 -0.07372574 8.21966614 -0.08275421 9.32363892 -0.09205627 C11.5915446 -0.10657072 13.85949228 -0.11544847 16.12744141 -0.11914062 C19.59560797 -0.13103453 23.06199434 -0.18020869 26.52978516 -0.23071289 C28.73290147 -0.24017722 30.93602871 -0.24741221 33.13916016 -0.25219727 C34.17575775 -0.27172958 35.21235535 -0.2912619 36.28036499 -0.31138611 C44.30750083 -0.26114002 44.30750083 -0.26114002 47.43457031 2.71630859 C49.24072266 5.30639648 49.24072266 5.30639648 49.24072266 7.30639648 C55.18072266 7.30639648 61.12072266 7.30639648 67.24072266 7.30639648 C68.23072266 9.28639648 69.22072266 11.26639648 70.24072266 13.30639648 C73.27197601 15.52154317 76.30496149 15.66812783 79.99072266 15.93139648 C80.97556641 16.00616211 81.96041016 16.08092773 82.97509766 16.15795898 C83.72275391 16.20694336 84.47041016 16.25592773 85.24072266 16.30639648 C79.99252208 22.67148216 74.21600813 28.45962624 68.37353516 34.27124023 C67.3281394 35.31476727 66.28296691 36.35851801 65.23800659 37.40248108 C62.50799426 40.12870393 59.77499073 42.85190829 57.0413208 45.57446289 C54.24397112 48.36152108 51.44950564 51.15146794 48.65478516 53.94116211 C43.18622571 59.3990473 37.71449821 64.85374207 32.24072266 70.30639648 C33.54227272 74.38603929 33.54227272 74.38603929 35.24072266 78.30639648 C35.35118453 79.92822187 35.39984978 81.55444713 35.41772461 83.17993164 C35.43697746 84.7025914 35.43697746 84.7025914 35.45661926 86.25601196 C35.4640062 87.35802948 35.47139313 88.460047 35.47900391 89.59545898 C35.48707565 90.72785004 35.4951474 91.86024109 35.50346375 93.02694702 C35.51731586 95.42948877 35.52803295 97.8320503 35.53588867 100.23461914 C35.55305504 103.89564849 35.59692709 107.55576408 35.64111328 111.21655273 C35.65124415 113.55118151 35.65975902 115.88581797 35.66650391 118.22045898 C35.68401199 119.31033112 35.70152008 120.40020325 35.71955872 121.52310181 C35.69938314 128.65400426 34.82548763 134.45114826 29.8285675 139.82510376 C25.19780842 143.94264141 20.90150095 145.55477982 14.77954102 145.56518555 C13.71170883 145.57148987 12.64387665 145.57779419 11.54368591 145.58428955 C10.40085648 145.58024109 9.25802704 145.57619263 8.08056641 145.57202148 C6.30752892 145.57489166 6.30752892 145.57489166 4.49867249 145.57781982 C2.00310045 145.57917929 -0.49247871 145.57549954 -2.98803711 145.56713867 C-6.81103354 145.55642659 -10.63356106 145.56704727 -14.45654297 145.57983398 C-16.88167422 145.57851253 -19.30680517 145.57595044 -21.73193359 145.57202148 C-22.87678726 145.57606995 -24.02164093 145.58011841 -25.20118713 145.58428955 C-26.26586716 145.57798523 -27.33054718 145.57168091 -28.42749023 145.56518555 C-29.36283096 145.56359436 -30.29817169 145.56200317 -31.26185608 145.56036377 C-33.88634904 145.29347433 -35.46780961 144.55615267 -37.75927734 143.30639648 C-46.11919296 144.0184737 -55.26926033 153.31571631 -60.57177734 159.37670898 C-71.8347019 173.65088737 -67.429213 197.70605456 -65.91870117 214.62789917 C-65.42211526 221.24928351 -65.90362285 225.78353613 -69.75927734 231.30639648 C-71.57568359 233.36499023 -71.57568359 233.36499023 -73.32177734 234.74389648 C-73.90056641 235.21698242 -74.47935547 235.69006836 -75.07568359 236.17749023 C-78.41274965 238.41510529 -80.78542257 238.32399794 -84.60229492 237.78173828 C-115.57631763 233.5335452 -115.57631763 233.5335452 -143.94433594 243.86401367 C-158.1874584 254.99230712 -170.12348782 269.44602271 -181.27624512 283.56678772 C-181.76564575 284.14085861 -182.25504639 284.7149295 -182.75927734 285.30639648 C-183.08927734 285.30639648 -183.41927734 285.30639648 -183.75927734 285.30639648 C-183.75927734 196.20639648 -183.75927734 107.10639648 -183.75927734 15.30639648 C-108.44677734 14.99389648 -108.44677734 14.99389648 -84.64086914 14.91845703 C-77.61684824 14.88190539 -77.61684824 14.88190539 -70.59284973 14.84138489 C-67.45713292 14.82340209 -64.32150979 14.81383225 -61.18574524 14.8092804 C-57.18981317 14.80320729 -53.19419343 14.78293543 -49.19837725 14.75223505 C-47.72945285 14.7433937 -46.26048761 14.73960523 -44.79153764 14.74135721 C-42.81185055 14.74300356 -40.83217659 14.72462247 -38.85258484 14.7051239 C-37.74182429 14.70051494 -36.63106375 14.69590597 -35.48664379 14.69115734 C-32.77264311 14.52560166 -32.77264311 14.52560166 -31.00344563 13.03147602 C-29.48180765 11.01893029 -29.48180765 11.01893029 -27.75927734 7.30639648 C-21.81927734 7.30639648 -15.87927734 7.30639648 -9.75927734 7.30639648 C-9.09927734 5.65639648 -8.43927734 4.00639648 -7.75927734 2.30639648 C-4.56023877 0.1737041 -3.68284731 0.04616833 0 0 Z " fill="#149AFD" transform="translate(198.75927734375,62.693603515625)"/>
<path d="M0 0 C-3.47069786 4.12262219 -6.9931024 8.11741567 -10.81201172 11.92553711 C-11.71249237 12.82594223 -12.61297302 13.72634735 -13.54074097 14.65403748 C-14.50366866 15.61186102 -15.4666521 16.56962851 -16.4296875 17.52734375 C-17.43024286 18.52603017 -18.43057481 19.52494047 -19.43069458 20.52406311 C-22.0423388 23.13191964 -24.65697367 25.73675695 -27.27227783 28.34094238 C-29.94898323 31.00735236 -32.62280102 33.67665464 -35.296875 36.34570312 C-40.52845398 41.56661101 -45.76320096 46.78432751 -51 52 C-53.51231778 50.99507289 -56.01423765 49.99366254 -58.48661804 48.89315796 C-61.21586304 47.92329069 -63.3248421 47.73426229 -66.21411133 47.70947266 C-67.22899124 47.69671295 -68.24387115 47.68395325 -69.289505 47.67080688 C-70.37603867 47.66858124 -71.46257233 47.66635559 -72.58203125 47.6640625 C-73.71017746 47.6574057 -74.83832367 47.6507489 -76.00065613 47.64389038 C-78.38526787 47.63377549 -80.76990785 47.629073 -83.15454102 47.62939453 C-86.78905305 47.62502817 -90.42234385 47.58871291 -94.05664062 47.55078125 C-96.37760003 47.54491141 -98.69856518 47.54094314 -101.01953125 47.5390625 C-102.09999222 47.52469147 -103.18045319 47.51032043 -104.2936554 47.49551392 C-111.60365125 47.53942556 -117.40925149 48.45499351 -122.83984375 53.81640625 C-123.20207031 54.39261719 -123.56429687 54.96882813 -123.9375 55.5625 C-124.31777344 56.14128906 -124.69804687 56.72007812 -125.08984375 57.31640625 C-126.86288221 60.59614693 -127.1367319 63.33410283 -127.17700195 66.98706055 C-127.18983719 68.00209152 -127.20267242 69.0171225 -127.21589661 70.06291199 C-127.22328354 71.15976822 -127.23067047 72.25662445 -127.23828125 73.38671875 C-127.25038887 75.08318291 -127.25038887 75.08318291 -127.26274109 76.81391907 C-127.27658011 79.2104845 -127.28730307 81.60706962 -127.29516602 84.00366211 C-127.31235093 87.65582033 -127.35623708 91.3070668 -127.40039062 94.95898438 C-127.41052019 97.28905585 -127.41903547 99.61913502 -127.42578125 101.94921875 C-127.45204338 103.57932137 -127.45204338 103.57932137 -127.47883606 105.24235535 C-127.46455304 110.27481984 -127.29706483 114.039734 -124.84838867 118.50317383 C-124.23842041 119.65712646 -123.62845215 120.8110791 -123 122 C-124.41645974 125.94862265 -127.28636967 128.54327293 -130.2265625 131.421875 C-130.73424164 131.92672424 -131.24192078 132.43157349 -131.76498413 132.95172119 C-133.38033842 134.55592096 -135.00252209 136.15300856 -136.625 137.75 C-137.72441698 138.83938107 -138.82338059 139.9292199 -139.921875 141.01953125 C-142.6093602 143.68501885 -145.30299021 146.34415143 -148 149 C-151 148 -151 148 -152.8125 146.125 C-158.78123926 140.32679615 -164.9951718 140.53269055 -172.86328125 140.53125 C-174.00983688 140.52363647 -175.15639252 140.51602295 -176.33769226 140.50817871 C-178.75920438 140.49739251 -181.18076297 140.49451856 -183.60229492 140.49902344 C-187.28969792 140.499994 -190.97500744 140.45838751 -194.66210938 140.4140625 C-197.02082902 140.40885373 -199.37955586 140.40616734 -201.73828125 140.40625 C-202.83231766 140.38985474 -203.92635406 140.37345947 -205.05354309 140.35656738 C-212.06730699 140.41925964 -217.56828403 141.30808936 -223 146 C-228.41627593 152.31333089 -228.72861376 158.95671003 -228.62890625 166.97265625 C-228.63252419 168.65638588 -228.63252419 168.65638588 -228.63621521 170.37413025 C-228.63524042 172.73488924 -228.62193559 175.09567214 -228.59692383 177.45629883 C-228.56256544 181.05564474 -228.57629994 184.65253876 -228.59570312 188.25195312 C-228.58880511 190.55469788 -228.57913314 192.85743634 -228.56640625 195.16015625 C-228.57136612 196.228069 -228.57632599 197.29598175 -228.58143616 198.39625549 C-228.45966085 206.17372879 -227.00259836 211.6637796 -221.75 217.5 C-221.1725 217.995 -220.595 218.49 -220 219 C-224.8798163 229.23610619 -232.27301564 238.19101263 -239.625 246.75 C-240.09827351 247.3026717 -240.57154701 247.8553434 -241.05916214 248.42476273 C-254.02592567 263.29110434 -267.07775133 271.20947025 -286.96942139 272.78311157 C-312.93169924 274.27269845 -339.14613087 272.45677007 -365 270 C-364.60794782 269.54738737 -364.21589563 269.09477474 -363.81196308 268.62844658 C-360.94040729 265.2986425 -358.13249023 261.95059372 -355.4597168 258.45751953 C-327.22208577 222.33045339 -327.22208577 222.33045339 -306.72679138 219.50735474 C-294.27802033 218.48807407 -281.72617671 219.03037459 -269.32290649 220.44580078 C-263.65280655 221.06829089 -259.8799233 221.46694222 -255 218 C-251.14609442 213.97091689 -248.08400209 210.22201607 -247.93444824 204.485672 C-248.01731079 203.59812729 -248.10017334 202.71058258 -248.18554688 201.79614258 C-248.26855042 200.77853348 -248.35155396 199.76092438 -248.43707275 198.71247864 C-248.57650299 197.07009468 -248.57650299 197.07009468 -248.71875 195.39453125 C-251.46685063 152.92539608 -251.46685063 152.92539608 -240.66040039 140.6061554 C-235.23219011 135.02222008 -229.01094203 129.45606424 -222 126 C-219.80761719 126.20898438 -219.80761719 126.20898438 -218 127 C-215.00419049 127.99860317 -212.9613232 128.14379634 -209.8293457 128.17700195 C-208.24673698 128.19625481 -208.24673698 128.19625481 -206.63215637 128.21589661 C-204.92125069 128.22697701 -204.92125069 128.22697701 -203.17578125 128.23828125 C-201.41272896 128.25038887 -201.41272896 128.25038887 -199.61405945 128.26274109 C-197.12333653 128.27658125 -194.63259466 128.2873037 -192.1418457 128.29516602 C-188.3448456 128.31235358 -184.54872182 128.35623928 -180.75195312 128.40039062 C-178.33073556 128.4105199 -175.9095106 128.41903527 -173.48828125 128.42578125 C-172.35779861 128.44328934 -171.22731598 128.46079742 -170.06257629 128.47883606 C-163.22413825 128.46015312 -158.81648491 127.67119493 -153 124 C-148.60461399 119.48894594 -146.75762768 115.02279778 -146.7253418 108.75415039 C-146.71580978 107.73281509 -146.70627777 106.7114798 -146.69645691 105.65919495 C-146.69736832 104.56638718 -146.69827972 103.47357941 -146.69921875 102.34765625 C-146.69279106 100.64832191 -146.69279106 100.64832191 -146.68623352 98.91465759 C-146.6804971 96.52164375 -146.67998488 94.12861248 -146.68432617 91.7355957 C-146.6874855 88.07928659 -146.66401949 84.42378722 -146.63867188 80.76757812 C-146.63639873 78.44010519 -146.63569546 76.11263007 -146.63671875 73.78515625 C-146.62290413 72.14898094 -146.62290413 72.14898094 -146.60881042 70.47975159 C-146.64402629 64.68758174 -147.21682615 61.17291475 -150 56 C-145.7750928 44.92364238 -135.6041356 34.60639658 -127.875 25.75 C-127.34234024 25.13794205 -126.80968048 24.52588409 -126.26087952 23.89527893 C-93.47842459 -13.16385432 -45.02923036 -4.78246314 0 0 Z " fill="#49D2FD" transform="translate(380,79)"/>
<path d="M0 0 C159.06 0 318.12 0 482 0 C482 6.93 482 13.86 482 21 C322.94 21 163.88 21 0 21 C0 14.07 0 7.14 0 0 Z " fill="#375D80" transform="translate(15,364)"/>
<path d="M0 0 C1.13993912 -0.0071553 2.27987823 -0.01431061 3.45436096 -0.02168274 C5.85376204 -0.02943185 8.25323409 -0.02450725 10.65258789 -0.00756836 C14.30296195 0.01164798 17.94952078 -0.02776734 21.59960938 -0.07226562 C23.94140849 -0.07255605 26.28321107 -0.06941452 28.625 -0.0625 C29.70446396 -0.07778244 30.78392792 -0.09306488 31.89610291 -0.10881042 C39.51583791 0.00708035 45.06929741 1.6147787 50.87890625 6.69921875 C56.31600515 12.9995945 56.60757985 19.65111798 56.5078125 27.671875 C56.51022446 28.79436142 56.51263641 29.91684784 56.51512146 31.073349 C56.51414667 33.43410799 56.50084184 35.79489089 56.47583008 38.15551758 C56.44147169 41.75486349 56.45520619 45.35175751 56.47460938 48.95117188 C56.46771136 51.25391663 56.45803939 53.55665509 56.4453125 55.859375 C56.4527523 57.46124413 56.4527523 57.46124413 56.46034241 59.09547424 C56.3503597 66.11978484 55.38471677 71.92502771 50.46730042 77.21888733 C45.85835295 81.31265179 41.55635305 82.93965862 35.46533203 82.98974609 C34.40718292 83.0025058 33.34903381 83.0152655 32.25881958 83.02841187 C31.12540131 83.03063751 29.99198303 83.03286316 28.82421875 83.03515625 C27.64930878 83.04181305 26.4743988 83.04846985 25.2638855 83.05532837 C22.78092004 83.06544409 20.29792745 83.07014572 17.81494141 83.06982422 C14.02460745 83.07419488 10.23544036 83.11052145 6.4453125 83.1484375 C4.02995189 83.15430639 1.61458576 83.1582753 -0.80078125 83.16015625 C-1.93015106 83.17452728 -3.05952087 83.18889832 -4.22311401 83.20370483 C-11.6578647 83.16072696 -16.17342181 82.23134628 -21.828125 77.171875 C-25.5497237 72.42453532 -27.34993412 68.55438366 -27.44335938 62.5168457 C-27.46257446 61.50842117 -27.48178955 60.49999664 -27.50158691 59.46101379 C-27.51008667 58.38075424 -27.51858643 57.30049469 -27.52734375 56.1875 C-27.5387439 55.06409714 -27.55014404 53.94069427 -27.56188965 52.7832489 C-27.58076251 50.40705109 -27.59384685 48.03080125 -27.6015625 45.65454102 C-27.62093388 42.04153632 -27.68298094 38.43082831 -27.74609375 34.81835938 C-27.75915943 32.50391969 -27.76965817 30.18946381 -27.77734375 27.875 C-27.80203735 26.8048616 -27.82673096 25.73472321 -27.85217285 24.63215637 C-27.8075043 17.01013527 -26.20642935 11.50684234 -21.12109375 5.69921875 C-14.80063102 0.23844059 -8.04967826 -0.0519837 0 0 Z " fill="#010404" transform="translate(178.12109375,218.30078125)"/>
<path d="M0 0 C1.13993912 -0.0071553 2.27987823 -0.01431061 3.45436096 -0.02168274 C5.85376204 -0.02943185 8.25323409 -0.02450725 10.65258789 -0.00756836 C14.30296195 0.01164798 17.94952078 -0.02776734 21.59960938 -0.07226562 C23.94140849 -0.07255605 26.28321107 -0.06941452 28.625 -0.0625 C29.70446396 -0.07778244 30.78392792 -0.09306488 31.89610291 -0.10881042 C39.51583791 0.00708035 45.06929741 1.6147787 50.87890625 6.69921875 C56.31600515 12.9995945 56.60757985 19.65111798 56.5078125 27.671875 C56.51022446 28.79436142 56.51263641 29.91684784 56.51512146 31.073349 C56.51414667 33.43410799 56.50084184 35.79489089 56.47583008 38.15551758 C56.44147169 41.75486349 56.45520619 45.35175751 56.47460938 48.95117188 C56.46771136 51.25391663 56.45803939 53.55665509 56.4453125 55.859375 C56.4527523 57.46124413 56.4527523 57.46124413 56.46034241 59.09547424 C56.3503597 66.11978484 55.38471677 71.92502771 50.46730042 77.21888733 C45.85835295 81.31265179 41.55635305 82.93965862 35.46533203 82.98974609 C34.40718292 83.0025058 33.34903381 83.0152655 32.25881958 83.02841187 C31.12540131 83.03063751 29.99198303 83.03286316 28.82421875 83.03515625 C27.64930878 83.04181305 26.4743988 83.04846985 25.2638855 83.05532837 C22.78092004 83.06544409 20.29792745 83.07014572 17.81494141 83.06982422 C14.02460745 83.07419488 10.23544036 83.11052145 6.4453125 83.1484375 C4.02995189 83.15430639 1.61458576 83.1582753 -0.80078125 83.16015625 C-1.93015106 83.17452728 -3.05952087 83.18889832 -4.22311401 83.20370483 C-11.6578647 83.16072696 -16.17342181 82.23134628 -21.828125 77.171875 C-25.5497237 72.42453532 -27.34993412 68.55438366 -27.44335938 62.5168457 C-27.46257446 61.50842117 -27.48178955 60.49999664 -27.50158691 59.46101379 C-27.51008667 58.38075424 -27.51858643 57.30049469 -27.52734375 56.1875 C-27.5387439 55.06409714 -27.55014404 53.94069427 -27.56188965 52.7832489 C-27.58076251 50.40705109 -27.59384685 48.03080125 -27.6015625 45.65454102 C-27.62093388 42.04153632 -27.68298094 38.43082831 -27.74609375 34.81835938 C-27.75915943 32.50391969 -27.76965817 30.18946381 -27.77734375 27.875 C-27.80203735 26.8048616 -27.82673096 25.73472321 -27.85217285 24.63215637 C-27.8075043 17.01013527 -26.20642935 11.50684234 -21.12109375 5.69921875 C-14.80063102 0.23844059 -8.04967826 -0.0519837 0 0 Z " fill="#000203" transform="translate(178.12109375,125.30078125)"/>
<path d="M0 0 C1.01503098 -0.01283524 2.03006195 -0.02567047 3.07585144 -0.03889465 C4.72113579 -0.04997505 4.72113579 -0.04997505 6.3996582 -0.0612793 C8.09612236 -0.07338692 8.09612236 -0.07338692 9.82685852 -0.08573914 C12.22342395 -0.09957816 14.62000908 -0.11030112 17.01660156 -0.11816406 C20.66875978 -0.13534898 24.32000626 -0.17923513 27.97192383 -0.22338867 C30.30199531 -0.23351824 32.63207447 -0.24203352 34.9621582 -0.2487793 C36.04889328 -0.26628738 37.13562836 -0.28379547 38.2552948 -0.30183411 C45.83736799 -0.28031485 51.17610304 0.85708278 57.0715332 5.95825195 C57.52657227 6.52543945 57.98161133 7.09262695 58.45043945 7.67700195 C58.92352539 8.24418945 59.39661133 8.81137695 59.8840332 9.39575195 C62.07369339 12.85071751 62.14647248 16.35761394 62.18994141 20.36938477 C62.20919426 21.92184906 62.20919426 21.92184906 62.22883606 23.50567627 C62.23622299 24.619245 62.24360992 25.73281372 62.2512207 26.88012695 C62.25929245 28.03188416 62.2673642 29.18364136 62.27568054 30.37030029 C62.28950726 32.80796815 62.30023572 35.24565525 62.30810547 37.68334961 C62.32531006 41.39905751 62.36920977 45.11387368 62.41333008 48.8293457 C62.42345822 51.20043293 62.43197394 53.5715277 62.4387207 55.94262695 C62.45622879 57.04809875 62.47373688 58.15357056 62.49177551 59.2925415 C62.47285661 66.06700833 61.63640366 70.40908948 58.01293945 76.17700195 C53.39618115 80.67538184 48.88953532 82.41607226 42.49169922 82.4675293 C41.41030167 82.480289 40.32890411 82.49304871 39.21473694 82.50619507 C38.05630783 82.50842072 36.89787872 82.51064636 35.7043457 82.51293945 C34.50486801 82.51959625 33.30539032 82.52625305 32.06956482 82.53311157 C29.53532442 82.54322731 27.00105744 82.54792893 24.46679688 82.54760742 C20.59305939 82.55198205 16.72045994 82.58831966 12.84692383 82.6262207 C10.38273501 82.63208875 7.91854079 82.63605822 5.4543457 82.63793945 C3.71973839 82.659496 3.71973839 82.659496 1.9500885 82.68148804 C-5.54312137 82.63897485 -9.13943525 81.82851043 -14.59643555 76.6496582 C-18.43537174 71.90357613 -20.22519155 68.06976426 -20.27758789 61.96289062 C-20.2903476 60.94801071 -20.3031073 59.9331308 -20.31625366 58.88749695 C-20.31847931 57.80096329 -20.32070496 56.71442963 -20.32299805 55.5949707 C-20.33298325 53.90275139 -20.33298325 53.90275139 -20.34317017 52.17634583 C-20.35328506 49.79173409 -20.35798755 47.40709411 -20.35766602 45.02246094 C-20.36203238 41.3879489 -20.39834763 37.75465811 -20.4362793 34.12036133 C-20.44214913 31.79940192 -20.44611741 29.47843677 -20.44799805 27.1574707 C-20.46236908 26.07700974 -20.47674011 24.99654877 -20.49154663 23.88334656 C-20.44650404 16.3850817 -19.4370716 10.66674442 -13.9519043 5.1184082 C-13.28288086 4.66336914 -12.61385742 4.20833008 -11.92456055 3.73950195 C-11.25295898 3.26641602 -10.58135742 2.79333008 -9.8894043 2.3059082 C-6.55501877 0.32718661 -3.79121446 0.04179419 0 0 Z " fill="#020202" transform="translate(271.987060546875,218.822998046875)"/>
<path d="M0 0 C1.01503098 -0.01283524 2.03006195 -0.02567047 3.07585144 -0.03889465 C4.72113579 -0.04997505 4.72113579 -0.04997505 6.3996582 -0.0612793 C8.09612236 -0.07338692 8.09612236 -0.07338692 9.82685852 -0.08573914 C12.22342395 -0.09957816 14.62000908 -0.11030112 17.01660156 -0.11816406 C20.66875978 -0.13534898 24.32000626 -0.17923513 27.97192383 -0.22338867 C30.30199531 -0.23351824 32.63207447 -0.24203352 34.9621582 -0.2487793 C36.04889328 -0.26628738 37.13562836 -0.28379547 38.2552948 -0.30183411 C45.83736799 -0.28031485 51.17610304 0.85708278 57.0715332 5.95825195 C57.52657227 6.52543945 57.98161133 7.09262695 58.45043945 7.67700195 C58.92352539 8.24418945 59.39661133 8.81137695 59.8840332 9.39575195 C62.07369339 12.85071751 62.14647248 16.35761394 62.18994141 20.36938477 C62.20919426 21.92184906 62.20919426 21.92184906 62.22883606 23.50567627 C62.23622299 24.619245 62.24360992 25.73281372 62.2512207 26.88012695 C62.25929245 28.03188416 62.2673642 29.18364136 62.27568054 30.37030029 C62.28950726 32.80796815 62.30023572 35.24565525 62.30810547 37.68334961 C62.32531006 41.39905751 62.36920977 45.11387368 62.41333008 48.8293457 C62.42345822 51.20043293 62.43197394 53.5715277 62.4387207 55.94262695 C62.45622879 57.04809875 62.47373688 58.15357056 62.49177551 59.2925415 C62.47285661 66.06700833 61.63640366 70.40908948 58.01293945 76.17700195 C53.39618115 80.67538184 48.88953532 82.41607226 42.49169922 82.4675293 C41.41030167 82.480289 40.32890411 82.49304871 39.21473694 82.50619507 C38.05630783 82.50842072 36.89787872 82.51064636 35.7043457 82.51293945 C34.50486801 82.51959625 33.30539032 82.52625305 32.06956482 82.53311157 C29.53532442 82.54322731 27.00105744 82.54792893 24.46679688 82.54760742 C20.59305939 82.55198205 16.72045994 82.58831966 12.84692383 82.6262207 C10.38273501 82.63208875 7.91854079 82.63605822 5.4543457 82.63793945 C3.71973839 82.659496 3.71973839 82.659496 1.9500885 82.68148804 C-5.54312137 82.63897485 -9.13943525 81.82851043 -14.59643555 76.6496582 C-18.43537174 71.90357613 -20.22519155 68.06976426 -20.27758789 61.96289062 C-20.2903476 60.94801071 -20.3031073 59.9331308 -20.31625366 58.88749695 C-20.31847931 57.80096329 -20.32070496 56.71442963 -20.32299805 55.5949707 C-20.33298325 53.90275139 -20.33298325 53.90275139 -20.34317017 52.17634583 C-20.35328506 49.79173409 -20.35798755 47.40709411 -20.35766602 45.02246094 C-20.36203238 41.3879489 -20.39834763 37.75465811 -20.4362793 34.12036133 C-20.44214913 31.79940192 -20.44611741 29.47843677 -20.44799805 27.1574707 C-20.46236908 26.07700974 -20.47674011 24.99654877 -20.49154663 23.88334656 C-20.44650404 16.3850817 -19.4370716 10.66674442 -13.9519043 5.1184082 C-13.28288086 4.66336914 -12.61385742 4.20833008 -11.92456055 3.73950195 C-11.25295898 3.26641602 -10.58135742 2.79333008 -9.8894043 2.3059082 C-6.55501877 0.32718661 -3.79121446 0.04179419 0 0 Z " fill="#020303" transform="translate(271.987060546875,125.822998046875)"/>
<path d="M0 0 C1.55246429 -0.01913956 1.55246429 -0.01913956 3.1362915 -0.03866577 C4.24986023 -0.04089142 5.36342896 -0.04311707 6.51074219 -0.04541016 C8.23837799 -0.05539536 8.23837799 -0.05539536 10.00091553 -0.06558228 C12.43858239 -0.07570743 14.87627697 -0.08039934 17.31396484 -0.08007812 C21.02976675 -0.08443996 24.74437005 -0.12073194 28.45996094 -0.15869141 C30.83105064 -0.16456193 33.20214597 -0.16852974 35.57324219 -0.17041016 C36.67871399 -0.18478119 37.78418579 -0.19915222 38.92315674 -0.21395874 C46.4974729 -0.16946904 52.25863558 0.7819516 57.86621094 6.32568359 C58.32125 6.99470703 58.77628906 7.66373047 59.24511719 8.35302734 C59.71820313 9.02462891 60.19128906 9.69623047 60.67871094 10.38818359 C62.65743253 13.72256912 62.94282495 16.48637343 62.98461914 20.27758789 C63.00387199 21.80013435 63.00387199 21.80013435 63.02351379 23.35343933 C63.03090073 24.45029556 63.03828766 25.54715179 63.04589844 26.67724609 C63.05397018 27.8082222 63.06204193 28.9391983 63.07035828 30.10444641 C63.0841973 32.50101184 63.09492026 34.89759697 63.1027832 37.29418945 C63.11996812 40.94634767 63.16385427 44.59759415 63.20800781 48.24951172 C63.21813738 50.5795832 63.22665266 52.90966236 63.23339844 55.23974609 C63.25090652 56.32648117 63.26841461 57.41321625 63.28645325 58.53288269 C63.26496103 66.10543168 62.15201342 71.50021161 56.99121094 77.34912109 C56.415 77.80416016 55.83878906 78.25919922 55.24511719 78.72802734 C54.66632813 79.20111328 54.08753906 79.67419922 53.49121094 80.16162109 C50.25587318 82.33102391 47.33838492 82.43568866 43.56103516 82.49926758 C42.48916962 82.5185582 41.41730408 82.53784882 40.31295776 82.557724 C35.40105643 82.61560319 30.48930024 82.66476238 25.57714844 82.69555664 C22.99140043 82.71711535 20.40572497 82.7511922 17.8203125 82.7980957 C14.08397966 82.86524264 10.34915662 82.89258414 6.61230469 82.91162109 C4.89151199 82.95336708 4.89151199 82.95336708 3.13595581 82.99595642 C-4.4619554 82.97663036 -9.68444853 81.73732299 -15.19238281 76.29052734 C-20.07680675 70.29275674 -19.77729105 63.35141235 -19.72363281 55.94287109 C-19.72745972 54.77220596 -19.73128662 53.60154083 -19.73522949 52.395401 C-19.7379415 49.93033992 -19.73063045 47.46524971 -19.71386719 45.00024414 C-19.69243007 41.23632478 -19.71370513 37.47431003 -19.73925781 33.71044922 C-19.73661479 31.30875232 -19.73149034 28.9070566 -19.72363281 26.50537109 C-19.7357782 24.82543312 -19.7357782 24.82543312 -19.74816895 23.11155701 C-19.66012458 15.74624467 -18.71914756 11.14351783 -13.62988281 5.58349609 C-8.96981153 1.99979997 -5.92484612 0.04971632 0 0 Z " fill="#000303" transform="translate(70.1923828125,218.70947265625)"/>
<path d="M0 0 C1.55246429 -0.01913956 1.55246429 -0.01913956 3.1362915 -0.03866577 C4.24986023 -0.04089142 5.36342896 -0.04311707 6.51074219 -0.04541016 C8.23837799 -0.05539536 8.23837799 -0.05539536 10.00091553 -0.06558228 C12.43858239 -0.07570743 14.87627697 -0.08039934 17.31396484 -0.08007812 C21.02976675 -0.08443996 24.74437005 -0.12073194 28.45996094 -0.15869141 C30.83105064 -0.16456193 33.20214597 -0.16852974 35.57324219 -0.17041016 C36.67871399 -0.18478119 37.78418579 -0.19915222 38.92315674 -0.21395874 C46.4974729 -0.16946904 52.25863558 0.7819516 57.86621094 6.32568359 C58.32125 6.99470703 58.77628906 7.66373047 59.24511719 8.35302734 C59.71820313 9.02462891 60.19128906 9.69623047 60.67871094 10.38818359 C62.65743253 13.72256912 62.94282495 16.48637343 62.98461914 20.27758789 C63.00387199 21.80013435 63.00387199 21.80013435 63.02351379 23.35343933 C63.03090073 24.45029556 63.03828766 25.54715179 63.04589844 26.67724609 C63.05397018 27.8082222 63.06204193 28.9391983 63.07035828 30.10444641 C63.0841973 32.50101184 63.09492026 34.89759697 63.1027832 37.29418945 C63.11996812 40.94634767 63.16385427 44.59759415 63.20800781 48.24951172 C63.21813738 50.5795832 63.22665266 52.90966236 63.23339844 55.23974609 C63.25090652 56.32648117 63.26841461 57.41321625 63.28645325 58.53288269 C63.26496103 66.10543168 62.15201342 71.50021161 56.99121094 77.34912109 C56.415 77.80416016 55.83878906 78.25919922 55.24511719 78.72802734 C54.66632813 79.20111328 54.08753906 79.67419922 53.49121094 80.16162109 C50.25587318 82.33102391 47.33838492 82.43568866 43.56103516 82.49926758 C42.48916962 82.5185582 41.41730408 82.53784882 40.31295776 82.557724 C35.40105643 82.61560319 30.48930024 82.66476238 25.57714844 82.69555664 C22.99140043 82.71711535 20.40572497 82.7511922 17.8203125 82.7980957 C14.08397966 82.86524264 10.34915662 82.89258414 6.61230469 82.91162109 C4.89151199 82.95336708 4.89151199 82.95336708 3.13595581 82.99595642 C-4.4619554 82.97663036 -9.68444853 81.73732299 -15.19238281 76.29052734 C-20.07680675 70.29275674 -19.77729105 63.35141235 -19.72363281 55.94287109 C-19.72745972 54.77220596 -19.73128662 53.60154083 -19.73522949 52.395401 C-19.7379415 49.93033992 -19.73063045 47.46524971 -19.71386719 45.00024414 C-19.69243007 41.23632478 -19.71370513 37.47431003 -19.73925781 33.71044922 C-19.73661479 31.30875232 -19.73149034 28.9070566 -19.72363281 26.50537109 C-19.7357782 24.82543312 -19.7357782 24.82543312 -19.74816895 23.11155701 C-19.66012458 15.74624467 -18.71914756 11.14351783 -13.62988281 5.58349609 C-8.96981153 1.99979997 -5.92484612 0.04971632 0 0 Z " fill="#020201" transform="translate(70.1923828125,125.70947265625)"/>
<path d="M0 0 C1.45387766 -0.01064158 1.45387766 -0.01064158 2.93712658 -0.02149814 C6.18789237 -0.03911311 9.43746808 -0.02095487 12.68821716 -0.00291443 C15.01741583 -0.00805185 17.34661061 -0.01533178 19.67579651 -0.02459717 C26.00422548 -0.04314066 32.33223415 -0.03015401 38.66064572 -0.01050687 C44.60681912 0.00419678 50.55294754 -0.00172616 56.49913179 -0.00656378 C68.28049093 -0.01513049 80.06168367 0.00154385 91.84300232 0.03126526 C103.27666715 0.06010925 114.71009233 0.06718312 126.14378357 0.05177307 C138.59402423 0.03501593 151.04415111 0.03097116 163.49439472 0.04848343 C170.08519096 0.0575938 176.67588128 0.06167257 183.26667976 0.05244255 C189.4612888 0.04479613 195.65555154 0.05685248 201.85010147 0.08429146 C204.12695856 0.09119328 206.40384788 0.09125414 208.68070412 0.08407593 C211.78199207 0.07542329 214.88220098 0.0912668 217.98339844 0.11352539 C218.89049122 0.10528462 219.797584 0.09704386 220.73216444 0.08855337 C226.79992813 0.16927482 226.79992813 0.16927482 229.98634148 2.49672794 C231.83939395 5.23603212 231.94104762 6.95451071 231.96165466 10.25123596 C231.98540916 11.94319092 231.98540916 11.94319092 232.00964355 13.66932678 C232.00468369 14.88293884 231.99972382 16.0965509 231.99461365 17.34693909 C232.00081223 18.59696716 232.0070108 19.84699524 232.01339722 21.13490295 C232.02050244 23.77825253 232.01925324 26.42008142 232.00462341 29.06324768 C231.98742758 32.4465542 232.01094029 35.82816366 232.04611301 39.21128082 C232.07337948 42.44402071 232.06335145 45.67661663 232.05711365 48.90943909 C232.07037186 50.12305115 232.08363007 51.33666321 232.09729004 52.58705139 C232.00467002 60.92277847 232.00467002 60.92277847 229.11546326 64.45826721 C226.4282074 65.62818909 226.4282074 65.62818909 222.8032074 65.06568909 C219.73439105 63.75860064 218.40228423 63.17365053 216.4282074 60.62818909 C216.06744385 58.55905151 216.06744385 58.55905151 216.08763123 56.15675354 C216.08785782 55.2560463 216.08808441 54.35533905 216.08831787 53.42733765 C216.10380173 52.45850143 216.11928558 51.48966522 216.13523865 50.49147034 C216.13948349 49.49689316 216.14372833 48.50231598 216.14810181 47.4776001 C216.16490587 44.29835534 216.20256164 41.11974252 216.2407074 37.94068909 C216.25575198 35.78640136 216.26944078 33.63210371 216.28172302 31.47779846 C216.31481496 26.19437942 216.36503147 20.9113294 216.4282074 15.62818909 C214.68662291 15.63371984 214.68662291 15.63371984 212.90985489 15.63936234 C185.35969325 15.72596057 157.80954522 15.79193449 130.25927563 15.8324504 C126.86962244 15.83745334 123.47996953 15.84263062 120.09031677 15.84791565 C119.41548708 15.84896489 118.74065738 15.85001413 118.0453783 15.85109517 C107.11313971 15.86850883 96.18098511 15.90005176 85.24879637 15.93680027 C74.0345418 15.97418305 62.82032924 15.9961198 51.60600924 16.00454307 C45.30572437 16.00976686 39.0056301 16.02208066 32.70540619 16.05110931 C26.77932101 16.07819372 20.85350554 16.08664815 14.92736435 16.08061981 C12.74885214 16.08172317 10.57033122 16.08971828 8.39187241 16.10501099 C5.42393337 16.12482946 2.45702083 16.12015781 -0.51094055 16.10920715 C-1.3786435 16.12085852 -2.24634645 16.13250988 -3.14034343 16.14451432 C-8.95154682 16.08631403 -8.95154682 16.08631403 -12.07168961 13.78171921 C-14.06907199 10.91430067 -14.64338164 9.13605175 -14.5717926 5.62818909 C-10.42293253 -0.14583301 -6.57187162 -0.08596104 0 0 Z " fill="#000000" transform="translate(280.57179260253906,62.37181091308594)"/>
<path d="M0 0 C-4.80818417 5.78590095 -9.97022734 11.11221429 -15.29418945 16.42358398 C-16.21029495 17.3414418 -17.12640045 18.25929962 -18.07026672 19.20497131 C-20.56344356 21.70267497 -23.05973405 24.19724413 -25.55676675 26.69109225 C-28.17364026 29.30542204 -30.78805965 31.92220426 -33.40287781 34.53858948 C-37.78640241 38.92392798 -42.17201976 43.30716529 -46.55883789 47.68920898 C-51.63569032 52.7605999 -56.70890282 57.83561072 -61.78027946 62.91247696 C-66.13862809 67.2753547 -70.49891116 71.63629196 -74.86083573 75.99559456 C-77.46467714 78.59787469 -80.06783264 81.20083128 -82.66924477 83.80554008 C-85.56090886 86.70061358 -88.45661863 89.59160642 -91.3527832 92.48217773 C-92.65170502 93.78413589 -92.65170502 93.78413589 -93.97686768 95.11239624 C-94.76050186 95.8932106 -95.54413605 96.67402496 -96.35151672 97.47850037 C-97.03599034 98.16259696 -97.72046396 98.84669355 -98.42567921 99.55152035 C-100 101 -100 101 -101 101 C-103.4413888 88.46803629 -105.38085342 73.82578457 -98.49475098 62.39880371 C-91.6996618 52.46851343 -82.93395835 44.06002968 -74.2421875 35.80957031 C-70.36986207 32.1312943 -66.67228383 28.31893002 -62.99600601 24.44601059 C-43.46961113 4.04241832 -28.58902345 -5.56951195 0 0 Z " fill="#49D3FF" transform="translate(436,79)"/>
<path d="M0 0 C0.93106567 -0.00945648 1.86213135 -0.01891296 2.82141113 -0.02865601 C4.32617004 -0.01954697 4.32617004 -0.01954697 5.86132812 -0.01025391 C7.4091095 -0.01455917 7.4091095 -0.01455917 8.98815918 -0.01895142 C11.17033436 -0.02099342 13.35252778 -0.01545411 15.53466797 -0.00292969 C18.87964713 0.01312154 22.22341791 -0.00277432 25.56835938 -0.02197266 C27.68685163 -0.01999025 29.80534314 -0.01614663 31.92382812 -0.01025391 C32.92700073 -0.0163266 33.93017334 -0.02239929 34.96374512 -0.02865601 C36.36034363 -0.01447128 36.36034363 -0.01447128 37.78515625 0 C38.60439575 0.00238678 39.42363525 0.00477356 40.2677002 0.00723267 C42.95806244 0.48956437 43.82895669 1.15930908 45.39257812 3.38818359 C45.78025818 5.51306152 45.78025818 5.51306152 45.79663086 7.99560547 C45.80931503 8.92667114 45.82199921 9.85773682 45.83506775 10.8170166 C45.83213211 11.82018921 45.82919647 12.82336182 45.82617188 13.85693359 C45.83141373 14.88878784 45.83665558 15.92064209 45.84205627 16.98376465 C45.84848131 19.16592509 45.84713328 21.34812014 45.83862305 23.53027344 C45.8301105 26.87546193 45.85887316 30.21894504 45.890625 33.56396484 C45.89223695 35.68245391 45.89165959 37.80094602 45.88867188 39.91943359 C45.90552284 41.4241925 45.90552284 41.4241925 45.92271423 42.95935059 C45.90864281 44.3559491 45.90864281 44.3559491 45.89428711 45.78076172 C45.89412094 46.60000122 45.89395477 47.41924072 45.89378357 48.26330566 C45.39257812 50.38818359 45.39257812 50.38818359 43.64381409 52.15089417 C41.14493675 53.52428841 39.70217218 53.77258725 36.87109375 53.79223633 C35.9833728 53.8049205 35.09565186 53.81760468 34.18103027 53.83067322 C33.22990356 53.82773758 32.27877686 53.82480194 31.29882812 53.82177734 C30.31515259 53.8270192 29.33147705 53.83226105 28.31799316 53.83766174 C26.24016259 53.84407951 24.16229567 53.84274814 22.08447266 53.83422852 C18.90396557 53.82571408 15.72525174 53.85449114 12.54492188 53.88623047 C10.52539116 53.88784246 8.50585727 53.887265 6.48632812 53.88427734 C5.53520142 53.89551132 4.58407471 53.9067453 3.60412598 53.9183197 C-0.17142822 53.8784217 -2.84541533 53.79390968 -6.20727539 52.00390625 C-8.45045465 47.81324844 -8.15736669 43.71972896 -8.10351562 39.04052734 C-8.10497086 38.03228409 -8.10642609 37.02404083 -8.10792542 35.98524475 C-8.10626686 33.85610053 -8.09471048 31.72694428 -8.07397461 29.59790039 C-8.04499677 26.33411936 -8.05337149 23.07196003 -8.06640625 19.80810547 C-8.06016956 17.73973818 -8.05177917 15.67137603 -8.04101562 13.60302734 C-8.04395126 12.62486557 -8.0468869 11.6467038 -8.0499115 10.63890076 C-8.03722733 9.73108353 -8.02454315 8.8232663 -8.01147461 7.88793945 C-8.00607162 7.08948105 -8.00066864 6.29102264 -7.99510193 5.46836853 C-7.13015926 0.8273232 -4.34184963 0.01264958 0 0 Z " fill="#4ACDF6" transform="translate(173.607421875,140.61181640625)"/>
<path d="M0 0 C0.93106567 -0.00945648 1.86213135 -0.01891296 2.82141113 -0.02865601 C4.32617004 -0.01954697 4.32617004 -0.01954697 5.86132812 -0.01025391 C7.4091095 -0.01455917 7.4091095 -0.01455917 8.98815918 -0.01895142 C11.17033436 -0.02099342 13.35252778 -0.01545411 15.53466797 -0.00292969 C18.87964713 0.01312154 22.22341791 -0.00277432 25.56835938 -0.02197266 C27.68685163 -0.01999025 29.80534314 -0.01614663 31.92382812 -0.01025391 C32.92700073 -0.0163266 33.93017334 -0.02239929 34.96374512 -0.02865601 C36.36034363 -0.01447128 36.36034363 -0.01447128 37.78515625 0 C38.60439575 0.00238678 39.42363525 0.00477356 40.2677002 0.00723267 C42.95840616 0.48962599 43.8308421 1.15716796 45.39257812 3.38818359 C45.76679993 5.51979065 45.76679993 5.51979065 45.76489258 8.01147461 C45.77423576 9.41291466 45.77423576 9.41291466 45.7837677 10.84266663 C45.77455795 11.84897629 45.76534821 12.85528595 45.75585938 13.89208984 C45.75660713 15.44342873 45.75660713 15.44342873 45.75737 17.02610779 C45.7550291 19.2124931 45.74529971 21.39888108 45.72875977 23.58520508 C45.70514627 26.94099886 45.70820141 30.29599962 45.71484375 33.65185547 C45.70926786 35.77360502 45.70215855 37.89535121 45.69335938 40.01708984 C45.69472649 41.52959068 45.69472649 41.52959068 45.69612122 43.07264709 C45.6865892 44.0037883 45.67705719 44.9349295 45.66723633 45.89428711 C45.66262894 46.71574722 45.65802155 47.53720734 45.65327454 48.38356018 C45.39257812 50.38818359 45.39257812 50.38818359 43.39257812 52.38818359 C41.30529785 52.64888 41.30529785 52.64888 38.69921875 52.6628418 C37.23760315 52.67713982 37.23760315 52.67713982 35.74645996 52.69172668 C34.69124146 52.69081528 33.63602295 52.68990387 32.54882812 52.68896484 C31.46879517 52.69324997 30.38876221 52.6975351 29.27600098 52.70195007 C26.9895091 52.70770037 24.70299892 52.70818851 22.41650391 52.70385742 C18.90691125 52.7006965 15.39816026 52.72415201 11.88867188 52.74951172 C9.67122503 52.75178443 7.4537759 52.75248834 5.23632812 52.75146484 C4.18110962 52.76067459 3.12589111 52.76988434 2.03869629 52.77937317 C0.57708069 52.77002998 0.57708069 52.77002998 -0.9140625 52.76049805 C-1.7740686 52.76112747 -2.63407471 52.7617569 -3.5201416 52.7624054 C-4.20894409 52.6389122 -4.89774658 52.51541901 -5.60742188 52.38818359 C-7.70853187 49.2365186 -7.86138742 48.47213122 -7.88208008 44.87255859 C-7.89161209 43.96151367 -7.9011441 43.05046875 -7.91096497 42.11181641 C-7.91005356 41.13051758 -7.90914215 40.14921875 -7.90820312 39.13818359 C-7.91248825 38.12852539 -7.91677338 37.11886719 -7.92118835 36.07861328 C-7.92693237 33.94352977 -7.92743139 31.80842668 -7.9230957 29.67333984 C-7.91993413 26.40086639 -7.94340003 23.12929533 -7.96875 19.85693359 C-7.97102276 17.78401807 -7.9717266 15.71110011 -7.97070312 13.63818359 C-7.97991287 12.65688477 -7.98912262 11.67558594 -7.99861145 10.66455078 C-7.99238266 9.75350586 -7.98615387 8.84246094 -7.97973633 7.90380859 C-7.98036575 7.10233398 -7.98099518 6.30085937 -7.98164368 5.47509766 C-7.14744723 0.82305362 -4.33842513 0.01263961 0 0 Z " fill="#C1E27C" transform="translate(173.607421875,233.61181640625)"/>
<path d="M0 0 C1.40144005 -0.00934319 1.40144005 -0.00934319 2.83119202 -0.01887512 C3.83750168 -0.00966537 4.84381134 -0.00045563 5.88061523 0.0090332 C6.91484116 0.0085347 7.94906708 0.00803619 9.01463318 0.00752258 C11.20101849 0.00986348 13.38740647 0.01959287 15.57373047 0.03613281 C18.92952425 0.05974631 22.28452502 0.05669116 25.64038086 0.05004883 C27.76213041 0.05562471 29.8838766 0.06273403 32.00561523 0.0715332 C33.01394913 0.0706218 34.02228302 0.06971039 35.06117249 0.06877136 C35.99231369 0.07830338 36.9234549 0.08783539 37.8828125 0.09765625 C38.70427261 0.10226364 39.52573273 0.10687103 40.37208557 0.11161804 C42.37670898 0.37231445 42.37670898 0.37231445 44.37670898 2.37231445 C44.62394714 4.46632385 44.62394714 4.46632385 44.61962891 7.08154297 C44.62424385 8.54800011 44.62424385 8.54800011 44.62895203 10.04408264 C44.62176651 11.1024382 44.61458099 12.16079376 44.60717773 13.2512207 C44.60671951 14.33362534 44.60626129 15.41602997 44.60578918 16.53123474 C44.60276457 18.82194107 44.59487208 21.1126453 44.58251953 23.40332031 C44.56426683 26.92365748 44.56200977 30.44373179 44.56225586 33.96411133 C44.55734073 36.18481674 44.55151244 38.40552037 44.54467773 40.6262207 C44.54356491 41.68660049 44.54245209 42.74698029 44.54130554 43.8394928 C44.53492569 44.81397873 44.52854584 45.78846466 44.52197266 46.79248047 C44.51625496 48.08582054 44.51625496 48.08582054 44.51042175 49.4052887 C44.37670898 51.37231445 44.37670898 51.37231445 43.37670898 52.37231445 C41.85284668 52.47590224 40.32423912 52.51082584 38.796875 52.51757812 C37.3351461 52.5271479 37.3351461 52.5271479 35.84388733 52.53691101 C34.25331764 52.53858025 34.25331764 52.53858025 32.63061523 52.5402832 C31.54916733 52.5436116 30.46771942 52.54694 29.35350037 52.55036926 C27.06102933 52.55544323 24.76855087 52.55777744 22.47607422 52.55761719 C18.95780332 52.5598029 15.43984617 52.57795173 11.92163086 52.59692383 C9.69962673 52.59985773 7.4776211 52.60184255 5.25561523 52.6027832 C4.19725967 52.60996872 3.13890411 52.61715424 2.04847717 52.6245575 C0.58202003 52.61994255 0.58202003 52.61994255 -0.9140625 52.61523438 C-2.20859596 52.6173719 -2.20859596 52.6173719 -3.52928162 52.61955261 C-5.62329102 52.37231445 -5.62329102 52.37231445 -7.62329102 50.37231445 C-7.88398743 48.36769104 -7.88398743 48.36769104 -7.89794922 45.87841797 C-7.90748123 44.94727676 -7.91701324 44.01613556 -7.92683411 43.05677795 C-7.9259227 42.04844406 -7.92501129 41.04011017 -7.92407227 40.0012207 C-7.92835739 38.96795151 -7.93264252 37.93468231 -7.9370575 36.87010193 C-7.94280785 34.68196344 -7.94329589 32.49380582 -7.93896484 30.30566406 C-7.9358071 26.95189887 -7.95924811 23.59901721 -7.98461914 20.24536133 C-7.98689222 18.12231557 -7.98759559 15.99926743 -7.98657227 13.8762207 C-7.99578201 12.86991104 -8.00499176 11.86360138 -8.01448059 10.82679749 C-8.0082518 9.89250412 -8.00202301 8.95821075 -7.99560547 7.99560547 C-7.99623489 7.17334976 -7.99686432 6.35109406 -7.99751282 5.50392151 C-7.62329102 3.37231445 -7.62329102 3.37231445 -6.38897705 1.60662842 C-4.11835709 0.0193372 -2.75925826 -0.00211217 0 0 Z " fill="#FC6467" transform="translate(274.623291015625,233.627685546875)"/>
<path d="M0 0 C0.9311412 -0.00630432 1.86228241 -0.01260864 2.82164001 -0.019104 C4.33414085 -0.01303131 4.33414085 -0.01303131 5.87719727 -0.00683594 C6.91046646 -0.00874939 7.94373566 -0.01066284 9.00831604 -0.01263428 C11.19646447 -0.01399702 13.38462095 -0.01029437 15.57275391 -0.00195312 C18.92637279 0.00873415 22.27945463 -0.00183997 25.63305664 -0.01464844 C27.7561047 -0.01332665 29.87915243 -0.01076385 32.00219727 -0.00683594 C33.00850693 -0.0108844 34.01481659 -0.01493286 35.05162048 -0.019104 C35.98591385 -0.01279968 36.92020721 -0.00649536 37.8828125 0 C39.11619606 0.00238678 39.11619606 0.00238678 40.37449646 0.00482178 C42.50610352 0.25878906 42.50610352 0.25878906 45.50610352 2.25878906 C45.88032532 4.30810547 45.88032532 4.30810547 45.87841797 6.86035156 C45.88776115 8.29193604 45.88776115 8.29193604 45.89729309 9.75244141 C45.88808334 10.78578613 45.8788736 11.81913086 45.86938477 12.88378906 C45.87013252 14.47054443 45.87013252 14.47054443 45.87089539 16.08935547 C45.86855197 18.32879512 45.8588078 20.56823726 45.84228516 22.80761719 C45.81870016 26.24470453 45.82172136 29.68101644 45.82836914 33.11816406 C45.82279247 35.29004371 45.81568265 37.46192007 45.80688477 39.63378906 C45.80825188 41.18380615 45.80825188 41.18380615 45.80964661 42.76513672 C45.80011459 43.71952637 45.79058258 44.67391602 45.78076172 45.65722656 C45.77615433 46.49946777 45.77154694 47.34170898 45.76679993 48.20947266 C45.50610352 50.25878906 45.50610352 50.25878906 43.50610352 52.25878906 C41.45678711 52.51275635 41.45678711 52.51275635 38.90454102 52.51757812 C37.95015137 52.52388245 36.99576172 52.53018677 36.01245117 52.53668213 C34.97910645 52.53263367 33.94576172 52.52858521 32.88110352 52.52441406 C31.8232666 52.52632751 30.76542969 52.52824097 29.67553711 52.5302124 C27.43611412 52.53157508 25.19668326 52.52787288 22.95727539 52.51953125 C19.52024674 52.50883308 16.08374082 52.51942394 12.64672852 52.53222656 C10.47485236 52.53090498 8.30297652 52.52834262 6.13110352 52.52441406 C5.09775879 52.52846252 4.06441406 52.53251099 2.99975586 52.53668213 C2.04536621 52.53037781 1.09097656 52.52407349 0.10766602 52.51757812 C-0.7345752 52.51598694 -1.57681641 52.51439575 -2.44458008 52.51275635 C-4.49389648 52.25878906 -4.49389648 52.25878906 -6.49389648 50.25878906 C-6.74786377 48.20947266 -6.74786377 48.20947266 -6.75268555 45.65722656 C-6.75898987 44.70283691 -6.76529419 43.74844727 -6.77178955 42.76513672 C-6.76774109 41.73179199 -6.76369263 40.69844727 -6.75952148 39.63378906 C-6.76143494 38.57595215 -6.76334839 37.51811523 -6.76531982 36.42822266 C-6.76668251 34.18879967 -6.76298031 31.9493688 -6.75463867 29.70996094 C-6.74394051 26.27293229 -6.75453136 22.83642636 -6.76733398 19.39941406 C-6.7660124 17.2275379 -6.76345004 15.05566207 -6.75952148 12.88378906 C-6.76559418 11.33377197 -6.76559418 11.33377197 -6.77178955 9.75244141 C-6.76548523 8.79805176 -6.75918091 7.84366211 -6.75268555 6.86035156 C-6.75109436 6.01811035 -6.74950317 5.17586914 -6.74786377 4.30810547 C-6.21899932 0.04058501 -3.67485492 0.00711828 0 0 Z " fill="#00D7DF" transform="translate(72.493896484375,233.7412109375)"/>
<path d="M0 0 C1.40144005 -0.00934319 1.40144005 -0.00934319 2.83119202 -0.01887512 C3.83750168 -0.00966537 4.84381134 -0.00045563 5.88061523 0.0090332 C6.91484116 0.0085347 7.94906708 0.00803619 9.01463318 0.00752258 C11.20101849 0.00986348 13.38740647 0.01959287 15.57373047 0.03613281 C18.92952425 0.05974631 22.28452502 0.05669116 25.64038086 0.05004883 C27.76213041 0.05562471 29.8838766 0.06273403 32.00561523 0.0715332 C33.01394913 0.0706218 34.02228302 0.06971039 35.06117249 0.06877136 C35.99231369 0.07830338 36.9234549 0.08783539 37.8828125 0.09765625 C38.70427261 0.10226364 39.52573273 0.10687103 40.37208557 0.11161804 C42.37670898 0.37231445 42.37670898 0.37231445 44.37670898 2.37231445 C44.62394714 4.42163086 44.62394714 4.42163086 44.61962891 6.97387695 C44.62424385 8.40546143 44.62424385 8.40546143 44.62895203 9.8659668 C44.62176651 10.89931152 44.61458099 11.93265625 44.60717773 12.99731445 C44.60671951 14.05515137 44.60626129 15.11298828 44.60578918 16.20288086 C44.60276443 18.44231282 44.59487152 20.68174264 44.58251953 22.92114258 C44.56428458 26.35806697 44.56200966 29.79472179 44.56225586 33.23168945 C44.55733998 35.40356679 44.55151136 37.5754423 44.54467773 39.74731445 C44.54356491 40.78065918 44.54245209 41.81400391 44.54130554 42.87866211 C44.53492569 43.83305176 44.52854584 44.78744141 44.52197266 45.77075195 C44.51625496 47.03411377 44.51625496 47.03411377 44.51042175 48.32299805 C44.37670898 50.37231445 44.37670898 50.37231445 43.37670898 52.37231445 C36.43500876 52.42290174 29.49335583 52.45800024 22.55151367 52.48217773 C20.18853987 52.49225369 17.82557859 52.50591474 15.46264648 52.52319336 C12.07199011 52.5473717 8.68149814 52.55878144 5.29077148 52.56762695 C4.22927887 52.57794952 3.16778625 52.58827209 2.0741272 52.59890747 C1.09326141 52.59905853 0.11239563 52.59920959 -0.89819336 52.59936523 C-2.19725113 52.60602707 -2.19725113 52.60602707 -3.52255249 52.61282349 C-5.62329102 52.37231445 -5.62329102 52.37231445 -7.62329102 50.37231445 C-7.88398743 48.36769104 -7.88398743 48.36769104 -7.89794922 45.87841797 C-7.90748123 44.94727676 -7.91701324 44.01613556 -7.92683411 43.05677795 C-7.9259227 42.04844406 -7.92501129 41.04011017 -7.92407227 40.0012207 C-7.92835739 38.96795151 -7.93264252 37.93468231 -7.9370575 36.87010193 C-7.94280785 34.68196344 -7.94329589 32.49380582 -7.93896484 30.30566406 C-7.9358071 26.95189887 -7.95924811 23.59901721 -7.98461914 20.24536133 C-7.98689222 18.12231557 -7.98759559 15.99926743 -7.98657227 13.8762207 C-7.99578201 12.86991104 -8.00499176 11.86360138 -8.01448059 10.82679749 C-8.0082518 9.89250412 -8.00202301 8.95821075 -7.99560547 7.99560547 C-7.99623489 7.17334976 -7.99686432 6.35109406 -7.99751282 5.50392151 C-7.62329102 3.37231445 -7.62329102 3.37231445 -6.38897705 1.60662842 C-4.11835709 0.0193372 -2.75925826 -0.00211217 0 0 Z " fill="#C8C8C8" transform="translate(274.623291015625,140.627685546875)"/>
<path d="M0 0 C0.9311412 -0.00630432 1.86228241 -0.01260864 2.82164001 -0.019104 C4.33414085 -0.01303131 4.33414085 -0.01303131 5.87719727 -0.00683594 C6.91046646 -0.00874939 7.94373566 -0.01066284 9.00831604 -0.01263428 C11.19646447 -0.01399702 13.38462095 -0.01029437 15.57275391 -0.00195312 C18.92637279 0.00873415 22.27945463 -0.00183997 25.63305664 -0.01464844 C27.7561047 -0.01332665 29.87915243 -0.01076385 32.00219727 -0.00683594 C33.00850693 -0.0108844 34.01481659 -0.01493286 35.05162048 -0.019104 C35.98591385 -0.01279968 36.92020721 -0.00649536 37.8828125 0 C39.11619606 0.00238678 39.11619606 0.00238678 40.37449646 0.00482178 C42.50610352 0.25878906 42.50610352 0.25878906 45.50610352 2.25878906 C45.88032532 4.30810547 45.88032532 4.30810547 45.87841797 6.86035156 C45.88776115 8.29193604 45.88776115 8.29193604 45.89729309 9.75244141 C45.88808334 10.78578613 45.8788736 11.81913086 45.86938477 12.88378906 C45.87013252 14.47054443 45.87013252 14.47054443 45.87089539 16.08935547 C45.86855197 18.32879512 45.8588078 20.56823726 45.84228516 22.80761719 C45.81870016 26.24470453 45.82172136 29.68101644 45.82836914 33.11816406 C45.82279247 35.29004371 45.81568265 37.46192007 45.80688477 39.63378906 C45.80825188 41.18380615 45.80825188 41.18380615 45.80964661 42.76513672 C45.80011459 43.71952637 45.79058258 44.67391602 45.78076172 45.65722656 C45.77615433 46.49946777 45.77154694 47.34170898 45.76679993 48.20947266 C45.50610352 50.25878906 45.50610352 50.25878906 43.50610352 52.25878906 C41.45678711 52.51275635 41.45678711 52.51275635 38.90454102 52.51757812 C37.95015137 52.52388245 36.99576172 52.53018677 36.01245117 52.53668213 C34.97910645 52.53263367 33.94576172 52.52858521 32.88110352 52.52441406 C31.8232666 52.52632751 30.76542969 52.52824097 29.67553711 52.5302124 C27.43611412 52.53157508 25.19668326 52.52787288 22.95727539 52.51953125 C19.52024674 52.50883308 16.08374082 52.51942394 12.64672852 52.53222656 C10.47485236 52.53090498 8.30297652 52.52834262 6.13110352 52.52441406 C5.09775879 52.52846252 4.06441406 52.53251099 2.99975586 52.53668213 C2.04536621 52.53037781 1.09097656 52.52407349 0.10766602 52.51757812 C-0.7345752 52.51598694 -1.57681641 52.51439575 -2.44458008 52.51275635 C-4.49389648 52.25878906 -4.49389648 52.25878906 -6.49389648 50.25878906 C-6.74786377 48.20947266 -6.74786377 48.20947266 -6.75268555 45.65722656 C-6.75898987 44.70283691 -6.76529419 43.74844727 -6.77178955 42.76513672 C-6.76774109 41.73179199 -6.76369263 40.69844727 -6.75952148 39.63378906 C-6.76143494 38.57595215 -6.76334839 37.51811523 -6.76531982 36.42822266 C-6.76668251 34.18879967 -6.76298031 31.9493688 -6.75463867 29.70996094 C-6.74394051 26.27293229 -6.75453136 22.83642636 -6.76733398 19.39941406 C-6.7660124 17.2275379 -6.76345004 15.05566207 -6.75952148 12.88378906 C-6.76559418 11.33377197 -6.76559418 11.33377197 -6.77178955 9.75244141 C-6.76548523 8.79805176 -6.75918091 7.84366211 -6.75268555 6.86035156 C-6.75109436 6.01811035 -6.74950317 5.17586914 -6.74786377 4.30810547 C-6.21899932 0.04058501 -3.67485492 0.00711828 0 0 Z " fill="#FEB128" transform="translate(72.493896484375,140.7412109375)"/>
<path d="M0 0 C154.44 0 308.88 0 468 0 C468 1.65 468 3.3 468 5 C313.56 5 159.12 5 0 5 C0 3.35 0 1.7 0 0 Z " fill="#7CA3B6" transform="translate(22,429)"/>
<path d="M0 0 C0.64324219 0.41121094 1.28648437 0.82242188 1.94921875 1.24609375 C5.10062233 3.48660213 5.94941025 4.71163843 6.625 8.5625 C6 12 6 12 4.4375 14.4375 C0.8671529 16.72618404 -0.79418194 16.74619353 -5 16 C-7.50078585 14.42380047 -9.81425615 12.66939681 -12.171875 10.88671875 C-21.92870856 4.37767095 -32.17718366 2.80530208 -43.5625 2.75 C-44.59697266 2.729375 -45.63144531 2.70875 -46.69726562 2.6875 C-56.84660463 2.63665798 -65.45242344 4.84938149 -74.4375 9.5 C-75.59121094 10.0878125 -76.74492187 10.675625 -77.93359375 11.28125 C-80.93792253 12.86793609 -80.93792253 12.86793609 -83.19140625 14.6875 C-86.15178175 16.83585026 -88.47776113 16.50317698 -92 16 C-94.97681267 13.46970923 -95.91104835 12.02294392 -96.25 8.125 C-92.54813116 -1.12967211 -81.49959326 -5.34716509 -72.92724609 -9.18994141 C-49.10724567 -19.20194564 -20.97740323 -14.1739211 0 0 Z " fill="#000306" transform="translate(455,187)"/>
<path d="M0 0 C0.82048828 0.20947266 1.64097656 0.41894531 2.48632812 0.63476562 C1.09958129 2.25485666 -0.28762695 3.87455416 -1.67663574 5.4927063 C-2.90994135 6.93079112 -4.14078672 8.37098921 -5.3692627 9.8132019 C-38.52683309 48.56336019 -38.52683309 48.56336019 -53.71679688 50.26367188 C-61.75005996 50.76594179 -69.73891183 49.6196808 -77.51367188 47.63476562 C-76.12692504 46.01467459 -74.7397168 44.39497709 -73.35070801 42.77682495 C-72.1174024 41.33874013 -70.88655703 39.89854204 -69.65808105 38.45632935 C-30.98235427 -6.74271622 -30.98235427 -6.74271622 0 0 Z " fill="#49D3FF" transform="translate(210.513671875,301.365234375)"/>
<path d="M0 0 C0.94074875 0.00022659 1.8814975 0.00045319 2.85075378 0.00068665 C4.36962944 0.02391243 4.36962944 0.02391243 5.91918945 0.04760742 C6.95815872 0.05185226 7.99712799 0.05609711 9.06758118 0.06047058 C12.38947346 0.07727769 15.71076145 0.11493421 19.0324707 0.15307617 C21.28311299 0.16812036 23.53376478 0.18180922 25.78442383 0.1940918 C31.30481268 0.22718781 36.82484852 0.27740748 42.3449707 0.34057617 C40.8173878 3.94430654 38.67983591 6.25907024 35.92700195 9.01733398 C35.01265381 9.93798645 34.09830566 10.85863892 33.15625 11.80718994 C32.15691166 12.80294943 31.15731233 13.79844704 30.1574707 14.79370117 C29.1334962 15.8190232 28.10981872 16.84464194 27.08642578 17.87054443 C24.94439901 20.01551569 22.79880627 22.15683748 20.65063477 24.2956543 C17.89301224 27.04185387 15.14450348 29.79697276 12.39857483 32.55485916 C10.28843125 34.672215 8.17356569 36.7848024 6.05722046 38.89595795 C5.04142287 39.91041877 4.02711603 40.92637452 3.01431274 41.94382477 C1.60201784 43.36117741 0.1826514 44.77147328 -1.23706055 46.18139648 C-2.04377197 46.98651672 -2.8504834 47.79163696 -3.68164062 48.62115479 C-5.6550293 50.34057617 -5.6550293 50.34057617 -7.6550293 50.34057617 C-7.73099616 43.70206011 -7.78359386 37.06365582 -7.81982422 30.42480469 C-7.83492532 28.16564749 -7.85540772 25.90651968 -7.88134766 23.64746094 C-7.91767237 20.40316525 -7.93474238 17.15925661 -7.94799805 13.91479492 C-7.9634819 12.90221115 -7.97896576 11.88962738 -7.99491882 10.84635925 C-7.99525871 9.43523613 -7.99525871 9.43523613 -7.99560547 7.99560547 C-8.0022673 7.16731735 -8.00892914 6.33902924 -8.01579285 5.48564148 C-7.6550293 3.34057617 -7.6550293 3.34057617 -6.42468262 1.57092285 C-4.1384484 -0.0185753 -2.77303243 -0.02230321 0 0 Z " fill="#E1E1E1" transform="translate(274.655029296875,140.659423828125)"/>
<path d="M0 0 C5.85675795 4.43796969 5.85675795 4.43796969 6.453125 8.52734375 C5.95805143 11.92213396 5.6037466 13.27317333 3.015625 15.52734375 C-0.109375 16.65234375 -0.109375 16.65234375 -3.984375 16.52734375 C-6.29069451 15.2303157 -8.3555408 13.7078628 -10.50390625 12.1640625 C-21.24963899 5.07357113 -34.68700978 5.1957518 -47.0390625 6.96484375 C-52.87985805 8.45769884 -57.49222093 11.59364552 -62.34375 15.1015625 C-65.49521307 16.80316608 -67.45090425 16.90907605 -70.984375 16.52734375 C-73.359375 14.96484375 -73.359375 14.96484375 -74.984375 12.52734375 C-75.546875 9.08984375 -75.546875 9.08984375 -74.984375 5.52734375 C-58.66799217 -16.57872332 -20.37784292 -12.86084143 0 0 Z " fill="#000406" transform="translate(444.984375,212.47265625)"/>
<path d="M0 0 C0.02527002 6.53278786 0.04283292 13.06556321 0.05493164 19.59838867 C0.05997317 21.82267732 0.06680623 24.04696263 0.07543945 26.27124023 C0.08751298 29.46078309 0.09322996 32.65028229 0.09765625 35.83984375 C0.10281754 36.84087631 0.10797882 37.84190887 0.11329651 38.87327576 C0.11337204 39.79415482 0.11344757 40.71503387 0.11352539 41.66381836 C0.115746 42.47878281 0.11796661 43.29374725 0.12025452 44.13340759 C0 46 0 46 -1 47 C-2.44289787 47.09295815 -3.89029785 47.11746513 -5.33618164 47.11352539 C-6.71750023 47.11341209 -6.71750023 47.11341209 -8.12672424 47.11329651 C-9.12775681 47.10813522 -10.12878937 47.10297394 -11.16015625 47.09765625 C-12.17975937 47.0962413 -13.19936249 47.09482635 -14.24986267 47.09336853 C-17.52077107 47.08775097 -20.79161213 47.0751955 -24.0625 47.0625 C-26.27408756 47.05748726 -28.48567618 47.05292396 -30.69726562 47.04882812 C-36.13153357 47.03777584 -41.56576197 47.02102063 -47 47 C-42.18960893 41.21170163 -37.02564447 35.88000927 -31.69921875 30.56640625 C-30.82223831 29.68846909 -29.94525787 28.81053192 -29.04170227 27.9059906 C-27.1998471 26.0634582 -25.3567416 24.2221749 -23.51245117 22.38208008 C-21.61837191 20.49160203 -19.72569881 18.59985874 -17.83569336 16.70532227 C-15.10535829 13.96884577 -12.37162543 11.23581297 -9.63671875 8.50390625 C-8.78575119 7.65091446 -7.93478363 6.79792267 -7.05802917 5.91908264 C-6.27664078 5.14084641 -5.49525238 4.36261017 -4.69018555 3.56079102 C-3.99990768 2.87130875 -3.30962982 2.18182648 -2.59843445 1.47145081 C-1 0 -1 0 0 0 Z " fill="#9DECFE" transform="translate(218,146)"/>
<path d="M0 0 C0.33 0 0.66 0 1 0 C1.0505916 6.65686814 1.0856876 13.31368694 1.10986328 19.97070312 C1.11993859 22.23667249 1.13359918 24.50262881 1.15087891 26.76855469 C1.17506011 30.02021501 1.18646763 33.27170387 1.1953125 36.5234375 C1.20563507 37.54118256 1.21595764 38.55892761 1.22659302 39.60751343 C1.22681961 41.01874985 1.22681961 41.01874985 1.22705078 42.45849609 C1.231492 43.28900482 1.23593323 44.11951355 1.24050903 44.97518921 C1 47 1 47 -1 49 C-2.87295532 49.24050903 -2.87295532 49.24050903 -5.17431641 49.22705078 C-6.46542831 49.22682419 -6.46542831 49.22682419 -7.78262329 49.22659302 C-8.71287323 49.21627045 -9.64312317 49.20594788 -10.6015625 49.1953125 C-11.55316254 49.1924826 -12.50476257 49.18965271 -13.48519897 49.18673706 C-16.53192592 49.17551989 -19.57836154 49.15041263 -22.625 49.125 C-24.68749576 49.11497218 -26.74999612 49.10584599 -28.8125 49.09765625 C-33.87511267 49.07557554 -38.9375069 49.0410353 -44 49 C-39.40821458 43.46980404 -34.4942081 38.41978576 -29.35546875 33.3984375 C-27.69292195 31.75825578 -26.03082562 30.11761733 -24.36914062 28.4765625 C-21.76861065 25.91326396 -19.16518212 23.35318488 -16.55395508 20.80078125 C-14.02037253 18.32153891 -11.49954817 15.82990312 -8.98046875 13.3359375 C-8.19512253 12.57437347 -7.40977631 11.81280945 -6.60063171 11.02816772 C-5.5186425 9.95147324 -5.5186425 9.95147324 -4.41479492 8.85302734 C-3.45932014 7.91540054 -3.45932014 7.91540054 -2.48454285 6.95883179 C-0.73710356 4.65311214 -0.36055586 2.84240347 0 0 Z " fill="#A4D272" transform="translate(218,237)"/>
<path d="M0 0 C3.19330123 2.29733902 5.28263604 4.13489156 7.484375 7.4375 C7.32203181 10.60319224 6.67015327 12.18291497 4.796875 14.75 C2.484375 16.4375 2.484375 16.4375 -0.390625 16.9375 C-4.28057078 16.31510868 -6.30054787 14.68805399 -9.515625 12.4375 C-16.36122701 8.82580269 -23.8117607 8.07444841 -31.265625 10.234375 C-34.83250762 11.61441887 -38.03690188 13.13285801 -41.265625 15.1875 C-44.28527425 16.86508292 -46.11745788 17.01591142 -49.515625 16.4375 C-52.2816059 13.96267498 -53.32218738 12.12197157 -54.328125 8.5625 C-52.97438818 3.35581991 -48.96781548 1.13897641 -44.515625 -1.5625 C-29.58820719 -8.77633219 -14.30619164 -8.88583332 0 0 Z " fill="#000306" transform="translate(433.515625,237.5625)"/>
<path d="M0 0 C1.0686731 -0.00478363 2.13734619 -0.00956726 3.23840332 -0.01449585 C5.49439977 -0.01789331 7.75044555 -0.0087018 10.00634766 0.01220703 C13.45717264 0.0389727 16.9047448 0.01245179 20.35546875 -0.01953125 C22.54948634 -0.01622713 24.7435019 -0.00982085 26.9375 0 C27.96782349 -0.01012115 28.99814697 -0.02024231 30.05969238 -0.03067017 C34.84405242 0.04751055 37.21663473 0.1091988 41.15429688 3.01416016 C42.96875 5.6640625 42.96875 5.6640625 43.03125 8.7265625 C41.74879312 12.27217857 41.06680592 13.47624821 37.96875 15.6640625 C34.31716932 16.27626044 30.69522664 16.22411988 27 16.1953125 C25.39131042 16.20105286 25.39131042 16.20105286 23.75012207 16.20690918 C21.48395854 16.20962966 19.21776369 16.20225903 16.95166016 16.18554688 C13.48138472 16.16414044 10.01317973 16.18534525 6.54296875 16.2109375 C4.34114126 16.20829425 2.13931506 16.20316933 -0.0625 16.1953125 C-1.10112183 16.20340942 -2.13974365 16.21150635 -3.20983887 16.21984863 C-10.37644133 16.12648145 -10.37644133 16.12648145 -13.65039062 13.81445312 C-15.50268359 10.92990637 -16.10158711 9.11058095 -16.03125 5.6640625 C-11.77373078 -0.55379456 -6.89665941 -0.06774781 0 0 Z " fill="#000001" transform="translate(205.03125,62.3359375)"/>
<path d="M0 0 C0.04935509 5.37514905 0.08569802 10.75016685 0.10986328 16.12548828 C0.11993484 17.95493873 0.13359276 19.78437303 0.15087891 21.61376953 C0.17507677 24.23994934 0.18647132 26.86591675 0.1953125 29.4921875 C0.20563507 30.31306854 0.21595764 31.13394958 0.22659302 31.97970581 C0.22699184 33.98789142 0.1224954 35.99555382 0 38 C-2 40 -2 40 -5.71533203 40.22705078 C-7.31286052 40.22673351 -8.91041027 40.21539982 -10.5078125 40.1953125 C-11.76874222 40.19106766 -11.76874222 40.19106766 -13.05514526 40.18673706 C-15.74524046 40.1755243 -18.4350051 40.15041803 -21.125 40.125 C-22.94660978 40.1149716 -24.76822477 40.10584551 -26.58984375 40.09765625 C-31.06002358 40.07558142 -35.52995571 40.04104434 -40 40 C-35.63437815 34.78066785 -31.04761468 29.90062363 -26.23046875 25.09765625 C-25.50886063 24.3750914 -24.7872525 23.65252655 -24.04377747 22.9080658 C-22.53147082 21.39508309 -21.01791842 19.88334464 -19.50317383 18.37280273 C-17.17347013 16.04850267 -14.84921149 13.718852 -12.52539062 11.38867188 C-11.05240429 9.9163455 -9.57910823 8.4443289 -8.10546875 6.97265625 C-7.05869209 5.92284325 -7.05869209 5.92284325 -5.99076843 4.8518219 C-5.3495253 4.21373093 -4.70828217 3.57563995 -4.04760742 2.91821289 C-3.198722 2.07052086 -3.198722 2.07052086 -2.33268738 1.20570374 C-1 0 -1 0 0 0 Z " fill="#7AF3F0" transform="translate(118,246)"/>
<path d="M0 0 C0.33 0.66 0.66 1.32 1 2 C0.68683838 2.7331543 0.37367676 3.46630859 0.05102539 4.22167969 C-1.21387944 7.56537701 -1.05971404 9.89618463 -0.81640625 13.453125 C0.03934327 35.32822223 0.03934327 35.32822223 -5.80859375 42.7578125 C-9.79044339 46.96944141 -14.14140255 50.82245437 -19 54 C-19.33 54 -19.66 54 -20 54 C-23.43087178 23.69220656 -23.43087178 23.69220656 -16.83807373 14.81164551 C-11.97793218 9.08056108 -6.12050939 4.32179586 0 0 Z " fill="#48D2FE" transform="translate(254,227)"/>
<path d="M0 0 C0.0246985 3.95099928 0.04285923 7.90196874 0.05493164 11.85302734 C0.06244036 13.85906551 0.0751447 15.86508202 0.08789062 17.87109375 C0.09272461 19.75634766 0.09272461 19.75634766 0.09765625 21.6796875 C0.10551147 23.42354736 0.10551147 23.42354736 0.11352539 25.20263672 C0 28 0 28 -1 30 C-10.57 30 -20.14 30 -30 30 C-26.19414061 25.55983071 -22.52338931 21.39557863 -18.41796875 17.28515625 C-17.91832108 16.78455185 -17.4186734 16.28394745 -16.90388489 15.76817322 C-15.86236119 14.72597637 -14.81960329 13.68501152 -13.77563477 12.64526367 C-12.17019485 11.04525338 -10.57025692 9.4398769 -8.97070312 7.83398438 C-7.95344609 6.81738694 -6.93587953 5.8010991 -5.91796875 4.78515625 C-4.99781982 3.86613525 -4.0776709 2.94711426 -3.12963867 2.00024414 C-1 0 -1 0 0 0 Z " fill="#E1E1E1" transform="translate(319,163)"/>
<path d="M0 0 C0.74617584 0.00848969 1.49235168 0.01697937 2.26113892 0.02572632 C4.62613192 0.05910592 6.98761455 0.13433923 9.3515625 0.2109375 C10.96219005 0.24105782 12.57287149 0.26843002 14.18359375 0.29296875 C18.1159197 0.35884421 22.04564769 0.46224404 25.9765625 0.5859375 C25.04065746 1.6914564 24.10276392 2.79529203 23.1640625 3.8984375 C22.64199219 4.51332031 22.11992187 5.12820312 21.58203125 5.76171875 C21.05222656 6.36371094 20.52242188 6.96570313 19.9765625 7.5859375 C19.33992676 8.42886353 19.33992676 8.42886353 18.69042969 9.28881836 C16.03171036 11.30103713 13.65652316 10.99035755 10.3671875 11.02734375 C9.05492187 11.05376953 7.74265625 11.08019531 6.390625 11.10742188 C5.00261653 11.12229573 3.61459456 11.13595753 2.2265625 11.1484375 C-0.47703205 11.18001559 -3.17941931 11.22576237 -5.8828125 11.27734375 C-7.08389648 11.28967041 -8.28498047 11.30199707 -9.52246094 11.31469727 C-13.32618026 11.60939267 -16.40379737 12.42347392 -20.0234375 13.5859375 C-19.15192135 12.54135431 -18.27596783 11.50047343 -17.3984375 10.4609375 C-16.91117187 9.88085938 -16.42390625 9.30078125 -15.921875 8.703125 C-15.29539062 8.00445312 -14.66890625 7.30578125 -14.0234375 6.5859375 C-13.6222168 6.09138062 -13.22099609 5.59682373 -12.80761719 5.08728027 C-8.94719752 0.6878142 -5.84928213 -0.25414413 0 0 Z " fill="#48D2FE" transform="translate(280.0234375,208.4140625)"/>
<path d="M0 0 C0.02887814 3.47914941 0.04675687 6.95826831 0.0625 10.4375 C0.07087891 11.43072266 0.07925781 12.42394531 0.08789062 13.44726562 C0.09272461 14.86362305 0.09272461 14.86362305 0.09765625 16.30859375 C0.10551147 17.62041626 0.10551147 17.62041626 0.11352539 18.95874023 C0 21 0 21 -1 22 C-2.56172745 22.08685603 -4.12729344 22.10702219 -5.69140625 22.09765625 C-6.63564453 22.09443359 -7.57988281 22.09121094 -8.55273438 22.08789062 C-10.04256836 22.07532227 -10.04256836 22.07532227 -11.5625 22.0625 C-12.55958984 22.05798828 -13.55667969 22.05347656 -14.58398438 22.04882812 C-17.05604849 22.03700007 -19.52799518 22.02051849 -22 22 C-17.62374788 16.76619303 -13.02454503 11.87123062 -8.1875 7.0625 C-7.50751953 6.37865234 -6.82753906 5.69480469 -6.12695312 4.99023438 C-5.48048828 4.34505859 -4.83402344 3.69988281 -4.16796875 3.03515625 C-3.58297607 2.4512915 -2.9979834 1.86742676 -2.39526367 1.26586914 C-1 0 -1 0 0 0 Z " fill="#C2E37D" transform="translate(218,264)"/>
<path d="M0 0 C4.29 0 8.58 0 13 0 C13 4.62 13 9.24 13 14 C8.71 14 4.42 14 0 14 C0 9.38 0 4.76 0 0 Z " fill="#87B2C7" transform="translate(447,400)"/>
<path d="M0 0 C4.29 0 8.58 0 13 0 C13 4.62 13 9.24 13 14 C8.71 14 4.42 14 0 14 C0 9.38 0 4.76 0 0 Z " fill="#87B1C7" transform="translate(63,400)"/>
<path d="M0 0 C0.99386719 0.02707031 1.98773438 0.05414063 3.01171875 0.08203125 C4.15060547 0.13423828 4.15060547 0.13423828 5.3125 0.1875 C1.21723413 5.08184213 -2.95107085 9.89470334 -7.6875 14.1875 C-8.0175 14.1875 -8.3475 14.1875 -8.6875 14.1875 C-8.76864106 12.41742286 -8.82675505 10.64627902 -8.875 8.875 C-8.90980469 7.88886719 -8.94460938 6.90273437 -8.98046875 5.88671875 C-8.6875 3.1875 -8.6875 3.1875 -7.53125 1.34375 C-4.94618785 -0.27739067 -3.0231612 -0.10669981 0 0 Z " fill="#FA808B" transform="translate(275.6875,233.8125)"/>
<path d="M0 0 C4.29 0 8.58 0 13 0 C13 0.33 13 0.66 13 1 C9.04 1 5.08 1 1 1 C1 3.97 1 6.94 1 10 C4.96 10 8.92 10 13 10 C13 11.32 13 12.64 13 14 C8.71 14 4.42 14 0 14 C0 9.38 0 4.76 0 0 Z " fill="#54768E" transform="translate(447,400)"/>
<path d="M0 0 C4.29 0 8.58 0 13 0 C13 4.62 13 9.24 13 14 C8.71 14 4.42 14 0 14 C0 12.68 0 11.36 0 10 C3.96 10 7.92 10 12 10 C12 7.03 12 4.06 12 1 C8.04 1 4.08 1 0 1 C0 0.67 0 0.34 0 0 Z " fill="#577A92" transform="translate(63,400)"/>
</svg>
